<svg width="448" height="181" viewBox="0 0 448 181" fill="none" xmlns="http://www.w3.org/2000/svg">
<path d="M45.9613 13.4058C45.1022 14.2648 43.6184 15.1239 42.6031 15.2801C41.666 15.4363 40.1821 16.3734 39.4011 17.4668C38.0735 19.3411 37.9954 19.6535 39.0888 21.7621C39.7916 23.0898 40.3383 24.5736 40.3383 25.0422C40.3383 25.5889 40.9631 26.1356 41.7441 26.1356C42.4469 26.2137 43.8527 26.3699 44.8679 26.4479C45.8832 26.526 47.7575 26.3699 49.1633 26.0575L51.6624 25.4327L48.929 25.3546C47.4451 25.2765 45.8051 24.9641 45.4146 24.6517C43.7746 23.4803 41.9003 19.8097 41.9003 17.7011C41.9783 15.5144 41.9783 15.5144 43.1498 18.1697C44.7898 22.1526 45.8832 23.246 46.6642 21.9964C47.6013 20.5907 47.5232 16.6858 46.5861 16.6858C46.1175 16.6858 45.9613 17.7011 46.1956 19.0287C46.6642 21.9183 45.4146 22.1526 44.7117 19.3411C44.3213 17.9354 44.6336 16.7639 45.5708 15.5925C46.3518 14.7334 47.0547 13.8743 47.1327 13.7181C47.1327 13.5619 48.148 14.0305 49.3195 14.8115C50.9595 15.9049 51.35 16.6858 51.1157 18.3259C50.8814 19.4973 51.0376 20.3564 51.4281 20.1221C51.7405 19.8878 52.0529 19.0287 52.0529 18.1697C52.0529 17.3887 52.4433 16.6858 52.8338 16.6858C53.6929 16.6858 53.1462 19.9659 51.8967 22.3088C51.35 23.4803 51.5843 23.7146 53.4586 23.7146C54.6301 23.7146 56.1139 23.246 56.6606 22.6993C57.4415 21.9183 57.5196 21.9964 57.1292 23.0898C56.8168 23.9488 56.973 24.4955 57.4415 24.4955C57.9882 24.4955 58.3006 22.7774 58.3006 19.9659C58.3006 17.3106 57.9882 15.9049 57.5977 16.5296C57.2854 17.0763 57.1292 18.4821 57.2854 19.6535C57.5977 21.684 57.5977 21.684 56.3482 20.2002C54.4739 17.7792 54.0053 15.1239 55.411 13.7962C56.4263 12.7029 56.7387 12.781 58.2225 14.2648C59.1597 15.202 59.9407 16.842 59.9407 18.0135C60.0968 19.8878 60.0968 19.9659 60.4092 18.404C60.9559 15.6706 62.2055 16.3734 61.815 19.1849C61.5807 20.5907 61.6588 21.2935 61.8931 20.7469C62.2055 20.044 62.5959 19.9659 63.3769 20.5907C64.0798 21.2155 64.5484 21.2155 64.9389 20.5907C65.7979 19.1068 67.6723 19.7316 67.6723 21.5278C67.6723 22.5431 67.9846 23.8707 68.4532 24.4955C68.9999 25.4327 69.2342 25.4327 69.7028 24.1831C70.0152 23.4022 69.859 22.0745 69.3123 21.2935C68.6094 20.1221 68.6875 19.8097 69.6247 19.8097C70.7961 19.8097 71.1866 21.0593 70.9523 23.9488C70.8742 24.886 71.1085 25.1984 71.8114 24.7298C72.28 24.4174 73.5295 24.2612 74.5448 24.4174C75.7162 24.4955 76.2629 24.1831 76.2629 23.3241C76.2629 21.4497 79.2306 23.246 79.8554 25.5108C80.0897 26.4479 81.1049 27.8537 82.1983 28.6347C84.4631 30.3528 84.6974 29.3375 82.5107 27.3851C81.6516 26.6822 80.9487 25.3546 80.9487 24.4955C80.9487 23.6365 80.2459 22.5431 79.3868 21.9964C77.4344 20.7469 77.4344 19.8878 79.3087 17.623C80.9487 15.7487 84.6974 15.2801 87.0403 16.7639C88.2118 17.4668 88.8365 17.3887 90.1642 16.2172C91.1013 15.4363 91.8823 14.3429 91.8823 13.7962C91.8823 12 93.3662 12.7029 93.9128 14.7334C94.1471 15.7487 94.9281 17.0763 95.631 17.623C96.6462 18.4821 96.8024 18.404 96.3338 17.3106C95.3967 14.8115 97.4272 14.9677 99.7701 17.5449C101.02 18.9506 102.035 20.4345 102.035 20.825C102.035 21.2155 102.816 21.3716 103.753 21.1374C104.924 20.825 106.096 21.2155 107.189 22.2307C108.751 23.6365 108.907 23.6365 109.923 22.465C110.86 21.2935 110.86 21.2155 109.298 21.684C108.048 22.0745 107.346 21.8402 106.721 20.5907C105.784 18.8725 103.597 18.404 103.597 19.9659C103.597 20.4345 102.347 19.3411 100.785 17.5449C98.8329 15.3582 97.4272 14.3429 96.49 14.5772C95.631 14.8115 95.0062 14.421 94.7719 13.4839C94.2252 11.4533 91.8823 11.6095 89.9299 13.7962C88.6022 15.3582 87.6651 15.5925 83.2916 15.5144C80.4802 15.5144 78.2153 15.8268 78.1372 16.2953C78.1372 16.6858 77.6687 18.0135 77.122 19.1849C75.6381 22.1526 71.5771 22.9336 71.5771 20.2002C71.5771 18.9506 69.859 18.2478 66.8132 18.2478C65.0951 18.2478 64.4703 17.7792 64.0798 16.2953C63.7674 14.9677 63.0645 14.3429 61.815 14.3429C60.8778 14.3429 59.6283 13.7962 59.0816 13.1715C58.5349 12.5467 57.5196 12 56.7387 12C55.9577 12 54.9424 12.5467 54.3958 13.1715C53.1462 14.7334 50.569 14.6553 48.8509 13.0934C47.6013 12 47.367 12 45.9613 13.4058ZM41.1193 19.0287C41.1193 19.4192 40.5726 19.8097 39.8697 19.8097C39.245 19.8097 38.9326 19.4192 39.1669 19.0287C39.4011 18.5602 39.9478 18.2478 40.4164 18.2478C40.8069 18.2478 41.1193 18.5602 41.1193 19.0287ZM55.1767 21.4497C55.1767 21.8402 54.6301 22.1526 54.0053 22.1526C53.3024 22.1526 53.0681 21.684 53.3024 20.9812C53.771 19.8097 55.1767 20.1221 55.1767 21.4497ZM43.4622 24.4955C43.4622 24.886 42.9155 25.2765 42.2126 25.2765C41.5879 25.2765 41.2755 24.886 41.5098 24.4955C41.7441 24.0269 42.2907 23.7146 42.7593 23.7146C43.1498 23.7146 43.4622 24.0269 43.4622 24.4955Z" fill="#73081E"/>
<path d="M49.0071 19.4973C49.0071 20.3564 49.2414 20.5907 49.4757 19.9659C49.71 19.4192 49.6319 18.7164 49.3976 18.4821C49.1633 18.1697 48.929 18.6383 49.0071 19.4973Z" fill="#73081E"/>
<path d="M113.515 23.8707C115.468 25.7451 116.249 26.1356 117.03 25.4327C117.889 24.8079 118.357 24.9641 119.06 26.1356C119.841 27.3851 120.232 27.4632 121.637 26.6822C122.965 25.8232 123.355 25.9013 123.98 26.9946C124.449 27.8537 125.698 28.4004 126.948 28.4004C128.197 28.4004 129.525 28.869 129.994 29.3375C130.697 30.1966 133.118 30.4309 136.398 30.0404C136.866 30.0404 137.179 29.5718 137.179 29.1032C137.179 28.4785 136.866 28.4785 136.085 29.1032C135.226 29.8061 134.211 29.728 131.634 28.7909C129.759 28.1661 127.416 27.6194 126.557 27.6194C125.62 27.6194 124.605 27.0727 124.371 26.3699C124.058 25.4327 123.277 25.2765 121.559 25.667C119.529 26.1356 119.216 25.9794 119.216 24.5736C119.216 22.6993 118.435 22.465 117.03 23.8707C116.327 24.5736 115.702 24.4174 114.296 23.0898C111.407 20.4345 110.782 21.0593 113.515 23.8707Z" fill="#73081E"/>
<path d="M28.3895 24.1832C26.6713 25.1203 26.2809 25.7451 26.7494 27.0728C27.2961 28.7909 27.218 28.7909 25.578 27.3071C23.6256 25.5889 23.4694 26.1356 25.1094 28.7128C26.2809 30.4309 26.2028 30.5871 24.6408 30.9776C23.7817 31.2119 23.2351 31.7586 23.5475 32.2272C23.7817 32.7738 23.5475 32.8519 22.8446 32.6176C22.1417 32.3834 21.595 31.8367 21.595 31.4462C21.595 30.1185 19.955 30.7433 18.1588 32.6957C17.1435 33.7891 16.0502 34.6482 15.8159 34.6482C14.6444 34.6482 8.31855 40.3492 8.31855 41.3645C8.31855 41.9893 7.61568 42.8484 6.75661 43.395C4.17941 45.0351 4.80419 47.6904 7.84997 48.7837C10.1929 49.6428 10.4272 49.9552 9.80239 51.2828C8.70904 53.2352 9.49001 54.9534 11.4424 54.9534C12.3796 54.9534 14.0977 55.5001 15.4254 56.1248C16.6749 56.8277 18.315 57.2182 19.0959 57.1401C20.5017 56.9058 20.6579 58.3896 19.6426 61.5916C19.2521 62.9193 19.7988 63.3879 22.5322 64.4812C26.9837 66.1993 35.262 67.0584 36.043 65.887C36.3554 65.4184 37.2925 65.2622 38.1516 65.4965C39.0888 65.887 40.7288 65.2622 42.7593 63.9345C46.8985 61.2011 48.4604 61.5916 48.7728 65.3403C48.929 66.9803 48.6947 68.2299 48.2261 68.2299C47.7575 68.2299 47.367 67.2927 47.2889 66.0431L47.2108 63.9345L46.6642 65.887L46.1175 67.8394L45.4927 66.0431C45.1803 65.0279 44.7117 64.325 44.5555 64.5593C44.3213 64.7155 44.5555 65.8089 44.946 66.9803C45.8832 69.3232 45.3365 69.6356 43.6965 67.6051C42.6812 66.3555 42.6031 66.4336 43.0717 68.0737C43.5403 69.7137 43.3841 69.7918 41.3536 69.4013C39.7135 69.0108 39.4792 69.0889 40.3383 69.7137C40.9631 70.1823 43.4622 70.5728 45.8832 70.5728C49.6318 70.5728 50.3347 70.3385 50.7252 69.0108C50.9595 68.1518 50.8033 67.6051 50.4128 67.9175C50.0223 68.1518 49.7099 67.527 49.7099 66.5898C49.7099 65.2622 49.9442 65.106 50.8033 65.8089C51.6624 66.5117 51.9748 66.3555 52.2871 65.106C52.5995 63.7783 53.3024 63.544 56.6606 63.544C59.9406 63.544 60.6435 63.7783 60.6435 64.8717C60.6435 65.8089 59.0035 66.9803 55.7234 68.4642L50.8814 70.5728L54.3958 70.4166C56.8949 70.2604 57.9101 69.8699 57.9101 69.0108C57.9101 68.3861 58.5349 67.7613 59.3159 67.6051C60.0187 67.4489 60.6435 67.6832 60.6435 68.1518C60.6435 69.4013 63.455 69.167 64.8608 67.8394C66.1884 66.5117 68.4532 66.2774 68.4532 67.4489C68.4532 67.8394 69.3123 68.2299 70.4056 68.2299H72.3581L70.7961 70.729C68.5313 74.4776 68.9218 75.3367 71.2647 71.9004C72.7485 69.7137 73.6076 69.0889 74.701 69.4013C75.7162 69.7137 76.2629 69.4013 76.6534 68.2299C76.9658 67.2146 77.8248 66.6679 79.1525 66.6679C80.9487 66.6679 81.1049 66.9022 80.7144 68.9327C80.402 70.4947 80.6363 71.5099 81.5735 72.369C82.8231 73.5405 83.0573 73.5405 83.9164 72.1347C85.0879 70.2604 87.6651 70.1042 88.2898 71.8223C88.6803 72.8376 89.4613 72.9938 91.8042 72.6033C93.8347 72.2909 95.0062 72.4471 95.1624 72.9938C95.3186 73.5405 96.6462 74.3214 98.1301 74.79C100.473 75.571 100.863 76.0396 100.707 77.992C100.551 79.9444 100.707 80.1006 101.332 78.9291C102.425 76.9767 101.723 75.4148 99.1453 74.3214C97.9739 73.7747 96.49 72.8376 95.8652 72.2909C95.3186 71.7442 93.7566 71.3537 92.5071 71.5099C91.1794 71.6661 90.008 71.2756 89.6175 70.6509C89.0708 69.8699 87.9775 69.7137 85.3222 70.1042L81.7297 70.6509V67.8394C81.7297 65.2622 81.8859 65.0279 83.5259 65.5746C86.6498 66.5898 89.8518 65.9651 91.4918 63.9345C93.288 61.7478 94.6157 61.3573 93.9128 63.1536C93.6785 63.8564 93.9909 64.5593 94.5376 64.7936C95.1624 65.0279 95.7872 65.887 96.0214 66.746C96.3338 67.8394 97.1148 68.2299 99.0672 68.2299C100.942 68.2299 102.347 68.8546 103.597 70.1823C105.393 72.1347 107.502 72.6814 108.595 71.588C108.907 71.2756 110.235 70.9633 111.485 70.8852C113.281 70.8071 113.593 70.9633 112.968 71.7442C112.422 72.369 112.422 72.9157 112.89 73.2281C113.281 73.4624 114.296 72.8376 115.155 71.7442C116.717 69.7918 118.201 69.0108 117.186 70.729C116.795 71.2756 116.561 73.0719 116.483 74.79C116.483 76.5862 116.092 77.992 115.468 78.2263C114.765 78.4606 114.609 77.992 114.999 76.43C115.468 74.4776 115.389 74.3995 113.828 75.1805C112.5 75.9615 112.188 75.8834 112.188 74.8681C112.188 74.009 111.641 73.6967 110.469 73.8528C109.142 74.009 108.673 74.5557 108.751 75.8053C108.751 76.8205 108.439 77.6015 107.97 77.6015C107.502 77.6015 107.736 77.992 108.439 78.4606C109.923 79.3196 109.454 81.5063 107.814 81.5063C107.189 81.5063 106.486 80.9597 106.252 80.3349C105.549 78.6949 103.753 78.8511 103.206 80.7254C102.66 82.5216 101.566 82.7559 101.02 81.2721C100.707 80.7254 100.395 81.0378 100.082 82.053C99.3796 84.2397 98.7548 84.3178 97.5053 82.2873C96.9586 81.3502 96.1776 80.8816 95.7872 81.1159C94.5376 81.8968 94.85 84.0055 96.4119 85.0988C97.5834 86.036 97.5053 86.1141 95.2405 86.1922C92.5852 86.1922 91.4918 87.7541 94.069 87.8322C95.2405 87.8322 95.2405 87.9103 94.1471 88.6913C92.1947 90.0189 93.9909 93.3771 96.4119 92.8304C97.7396 92.518 98.6767 92.9085 99.692 94.1581C100.942 95.7981 101.332 95.8762 103.753 94.939C105.237 94.4704 107.033 94.0019 107.736 94.0019C108.751 94.0019 109.064 93.299 109.064 91.2685C109.064 89.7846 108.751 88.5351 108.283 88.5351C107.892 88.5351 107.502 89.2379 107.502 90.097C107.502 91.8151 106.252 92.2056 105.705 90.6437C105.549 90.1751 105.471 90.3313 105.549 91.0342C105.862 92.9866 103.675 94.6266 102.738 93.1428C101.566 91.2685 101.957 90.3313 104.846 88.1446C107.346 86.2703 108.283 83.615 106.33 83.8493C105.94 83.9274 105.627 84.3959 105.784 85.0207C105.862 85.6455 104.768 86.4265 103.206 86.9731C99.8482 88.0665 99.6139 87.9884 100.551 85.5674C101.098 84.1616 101.644 83.8493 102.816 84.2397C104.065 84.6302 104.378 84.3959 104.378 83.0683C104.378 81.7406 104.69 81.5063 105.784 81.9749C106.486 82.2873 108.283 82.5997 109.688 82.5997C111.016 82.5997 112.188 82.834 112.188 83.2245C112.188 83.5369 112.89 83.8493 113.749 83.8493C114.609 83.8493 115.311 84.1616 115.311 84.5521C115.311 84.9426 116.092 85.255 117.108 85.255C118.045 85.3331 120.7 85.5674 122.965 85.8798C126.635 86.3484 127.026 86.5827 126.557 87.9884C126.245 88.9256 126.401 89.316 126.87 89.0037C128.275 88.1446 133.898 90.878 136.007 93.3771C137.491 95.0952 137.96 95.3295 137.96 94.3923C137.96 93.2209 138.116 93.2209 139.209 94.08C140.224 94.8609 140.537 94.8609 141.161 93.9238C141.708 93.0647 141.864 93.299 141.942 94.7828C142.021 96.1886 142.177 96.3448 142.411 95.3295C142.802 93.9238 142.802 93.9238 144.363 95.3295C146.003 96.7353 146.003 96.6572 145.144 95.1733C144.598 94.1581 144.598 93.2209 145.144 92.1275C145.847 90.878 145.769 90.7218 144.52 91.2685C142.88 91.9713 141.864 91.9713 138.194 91.1904C135.539 90.7218 134.836 89.7065 136.632 89.0818C137.1 88.9256 136.554 88.457 135.226 88.1446C133.977 87.8322 131.477 86.895 129.681 86.1141C127.963 85.3331 125.152 84.6302 123.355 84.6302C120.856 84.6302 119.841 84.1616 118.201 82.2873C115.624 79.3977 115.624 79.1634 117.967 79.3196C119.06 79.3977 119.841 79.7882 119.763 80.1787C119.685 80.5692 120.231 81.2721 121.012 81.7406C122.106 82.5216 122.887 82.3654 124.761 81.2721C126.089 80.5692 127.495 79.9444 127.807 79.9444C128.197 79.9444 129.916 78.6168 131.634 76.8986L134.758 73.8528L135.617 76.1177C136.163 77.3672 136.944 78.1482 137.335 77.9139C137.725 77.6796 137.647 78.1482 137.022 79.0853C136.476 80.0225 135.851 80.7254 135.617 80.7254C135.382 80.7254 134.758 81.0378 134.133 81.4283C133.196 82.053 133.196 82.2873 134.133 83.2245C134.758 83.8493 135.695 84.2397 136.241 84.0055C136.71 83.8493 137.179 84.1616 137.179 84.7864C137.179 86.4265 141.474 87.9884 143.348 87.0512C146.003 85.5674 147.331 86.036 147.878 88.5351C148.346 91.0342 150.455 91.659 152.798 90.0189C153.735 89.3941 153.501 89.316 151.861 89.6284C150.221 90.0189 149.518 89.7065 148.893 88.5351C148.424 87.5979 148.346 86.9731 148.815 86.9731C149.205 86.9731 149.752 87.4417 149.986 87.9103C150.221 88.457 150.299 88.2227 150.065 87.2855C149.752 86.036 150.377 85.3331 153.188 83.9274C155.063 82.9902 156.859 81.8968 157.093 81.4283C157.718 80.4911 159.046 80.4911 159.046 81.5844C159.046 82.053 159.592 82.9121 160.217 83.5369C161.232 84.6302 161.389 84.5521 161.389 83.0683C161.389 82.1311 161.779 81.6625 162.17 81.8968C163.653 82.7559 163.029 86.3484 161.389 86.7388C159.67 87.2074 159.28 88.5351 160.842 88.5351C162.794 88.5351 164.591 85.7236 164.356 83.1464C164.2 80.8035 162.17 78.6168 161.154 79.632C160.92 79.8663 160.061 79.7101 159.28 79.1634C158.03 78.3825 158.109 78.3825 159.749 78.8511C160.92 79.1634 161.389 79.0072 161.076 78.5387C160.217 77.1329 161.779 76.8205 163.966 77.992C165.684 78.8511 165.918 78.8511 165.528 77.9139C164.903 76.1958 166.309 76.6643 167.793 78.6949C169.198 80.6473 168.808 81.5063 166.074 82.5216C165.137 82.834 165.215 82.9902 166.309 82.9902C168.261 83.0683 170.916 81.5844 170.37 80.7254C170.135 80.3349 170.76 79.8663 171.697 79.5539C175.212 78.6168 179.351 76.5862 179.351 75.8053C179.351 75.4148 178.726 75.571 178.023 76.1177C176.852 77.0548 176.774 77.0548 177.242 75.8053C177.867 74.0871 176.383 74.0871 174.899 75.8053C173.884 77.0548 173.806 76.9767 174.196 74.8681C174.665 72.8376 174.587 72.6814 173.728 74.0871C172.869 75.4929 172.791 75.4148 171.854 72.9157C170.916 70.2604 170.916 70.3385 171.307 74.3995C171.697 77.7577 171.541 78.5387 170.682 78.2263C169.511 77.8358 169.198 71.3537 170.214 68.6984C170.76 67.2146 170.916 67.2927 172.791 69.2451C173.884 70.4166 175.29 71.3537 175.915 71.3537C176.696 71.3537 177.008 71.8223 176.696 72.5252C176.383 73.4624 176.539 73.5405 177.867 72.6814C179.273 71.9004 179.663 71.9785 180.757 73.6186C181.538 74.6338 182.865 76.2739 183.881 77.3672C185.599 79.2415 185.755 79.2415 186.77 77.9139C187.317 77.0548 188.098 76.6643 188.41 77.0548C188.723 77.3672 188.254 78.3044 187.317 79.1634C186.38 80.1006 185.599 80.413 185.599 79.9444C185.599 79.5539 185.208 79.1634 184.74 79.1634C184.349 79.1634 184.193 79.5539 184.427 79.9444C184.74 80.413 185.208 81.8187 185.599 83.0683C186.223 85.255 186.145 85.4112 184.193 85.4112C183.021 85.4112 181.616 85.0988 181.069 84.7864C179.741 83.9274 180.757 81.2721 182.162 81.8187C182.943 82.1311 183.256 81.6625 183.256 80.3349C183.256 77.5234 182.006 77.2891 180.913 79.9444C180.366 81.194 179.585 82.1311 179.195 82.053C177.164 81.6625 177.945 83.9274 180.288 85.4112C183.646 87.4417 187.161 87.5198 187.161 85.4893C187.161 84.2397 187.551 84.0835 190.206 84.3959C192.549 84.7083 193.565 84.474 194.814 83.2245L196.376 81.6625L194.502 81.194C192.003 80.5692 192.159 79.3196 194.814 78.9291C195.986 78.773 195.595 78.6949 194.033 78.773C191.612 79.0072 191.065 78.773 191.065 77.6015C191.065 76.8205 191.612 75.8053 192.237 75.2586C192.862 74.7119 193.408 73.9309 193.408 73.5405C193.408 73.0719 192.862 73.15 192.237 73.6967C191.3 74.4776 191.065 74.3995 191.065 73.3843C191.065 72.6033 190.753 72.2909 190.284 72.5252C189.894 72.7595 189.503 72.5252 189.503 71.9785C189.503 71.4318 188.801 71.8223 188.02 72.8376C186.926 74.2433 186.458 74.4776 186.145 73.6186C185.911 72.9938 185.677 73.5405 185.599 74.8681L185.521 77.211L183.1 74.5557L180.679 71.8223L184.271 70.8071C188.254 69.6356 190.284 67.8394 186.614 68.6984C185.442 69.0108 183.646 69.5575 182.631 69.8699C180.288 70.729 179.351 70.729 179.351 69.8699C179.351 69.4794 180.913 68.5423 182.865 67.8394C184.818 67.0584 186.77 65.9651 187.239 65.4184C187.707 64.7936 188.801 64.325 189.582 64.325C190.363 64.325 191.144 64.0126 191.378 63.6221C191.69 63.2317 191.144 63.0755 190.284 63.3098C189.113 63.6221 188.723 63.3098 188.644 62.2945C188.644 60.9668 188.566 61.0449 187.942 62.4507C187.161 64.4031 186.223 65.106 182.553 66.4336C179.273 67.6051 177.633 66.9803 178.179 64.7936C178.336 63.9345 178.336 63.6221 178.101 64.0907C177.867 64.6374 176.539 65.106 175.134 65.106C173.806 65.106 171.932 65.6527 170.995 66.2774C168.886 67.7613 167.558 72.2128 168.183 75.571C168.574 77.8358 168.495 77.9139 167.48 76.5081C166.621 75.4148 165.762 75.1805 164.278 75.571C162.482 75.9615 162.17 75.7272 161.467 73.5405L160.764 70.9633L160.686 74.2433C160.608 76.1177 160.373 77.6015 160.139 77.6015C159.827 77.6015 158.733 76.6643 157.718 75.4148L155.844 73.3062L156.39 75.6491C156.937 77.992 156.937 77.992 155.297 76.5862C153.579 75.0243 152.017 75.3367 152.017 77.211C152.017 77.7577 152.798 78.3825 153.813 78.5387C154.75 78.6949 155.453 79.0853 155.453 79.5539C155.219 80.8816 142.255 86.9731 141.552 86.036C141.396 85.9579 140.927 84.7083 140.381 83.4588C139.834 82.053 139.6 81.8187 139.834 82.834C140.224 85.1769 139.209 85.0988 138.194 82.834C137.569 81.5844 137.569 80.5692 138.116 79.5539C138.74 78.5387 138.662 77.6796 138.038 76.7424C136.71 74.5557 136.944 73.6967 138.975 73.6186C140.537 73.5405 140.537 73.4624 139.131 73.15C138.272 72.9938 136.241 72.2909 134.679 71.588C133.118 70.9633 130.931 70.5728 129.837 70.729C128.666 70.9633 127.807 70.8852 127.807 70.4947C127.807 70.1823 127.026 69.7918 126.089 69.6356C125.074 69.4794 124.371 68.9327 124.449 68.3861C124.605 67.9175 124.293 67.4489 123.902 67.4489C123.433 67.4489 123.121 67.9175 123.121 68.5423C123.121 69.0889 122.574 70.0261 121.95 70.5728C121.325 71.1195 121.012 71.8223 121.247 72.2128C121.481 72.6033 121.325 72.9157 120.856 72.9157C119.685 72.9157 120.153 67.9175 121.403 66.9803C122.496 66.1993 122.418 66.0431 120.934 65.5746C119.997 65.2622 118.982 64.1688 118.748 63.0755C118.513 62.0602 117.967 61.2011 117.498 61.2011C117.108 61.2011 117.03 61.9821 117.342 62.9193C117.889 64.7155 117.81 64.7155 116.17 63.2317C114.921 62.1383 114.53 61.9821 114.53 62.8412C114.53 63.466 113.749 64.325 112.812 64.7155C111.797 65.1841 111.094 66.1212 111.094 66.8241C111.172 67.6051 110.235 68.5423 108.986 69.0889C107.033 69.8699 106.486 69.7918 105.315 68.7765C104.612 68.0737 102.582 67.4489 100.942 67.2927C98.5986 67.1365 97.7396 66.6679 97.271 65.2622C96.7243 63.8564 96.8805 63.544 98.1301 63.544C99.1453 63.544 99.5358 63.9345 99.2234 64.7155C98.911 65.3403 99.1453 65.887 99.6139 65.887C100.082 65.887 100.473 65.3403 100.473 64.7155C100.473 63.1536 101.723 63.2317 105.862 65.1841L109.376 66.746L107.97 65.1841C106.565 63.6221 106.565 63.544 108.595 62.8412C109.688 62.3726 110.626 61.8259 110.626 61.5916C110.626 61.2792 110.313 61.3573 109.845 61.5916C109.454 61.8259 109.064 61.7478 109.064 61.2792C109.064 60.8887 109.454 60.264 109.845 60.0297C110.313 59.7954 110.626 59.0925 110.626 58.6239C110.626 58.0773 109.767 58.6239 108.673 59.7954C107.502 61.123 106.33 61.8259 105.627 61.5135C104.222 60.9668 103.987 59.1706 105.159 58.4677C105.627 58.2335 105.94 58.7801 105.94 59.7173C105.94 61.904 106.33 61.5135 107.033 58.5458C107.58 56.4372 107.502 56.3591 105.471 56.8277C103.597 57.2963 103.441 57.2182 104.3 56.2029C104.924 55.5001 105.003 54.9534 104.534 54.9534C104.144 54.9534 103.363 55.422 102.894 56.0467C101.723 57.4525 97.8958 57.4525 98.4425 56.0467C98.6767 55.422 98.5205 54.9534 98.1301 54.9534C97.6615 54.9534 97.3491 55.7343 97.3491 56.6715V58.4677L95.7872 56.5153C94.6938 55.1096 94.2252 54.8753 94.2252 55.8124C94.2252 57.7649 96.9586 59.8735 98.8329 59.2487C100.785 58.6239 103.597 59.4049 103.597 60.5764C103.597 61.0449 102.738 61.2011 101.644 61.0449C100.551 60.8107 99.692 60.8887 99.692 61.2011C99.692 61.6697 96.2557 63.544 95.3967 63.544C94.5376 63.544 95.0843 61.2792 96.0214 60.8887C96.49 60.5764 95.7872 60.5764 94.3814 60.8107L91.8042 61.2011L92.2728 58.2335C92.6633 56.1248 92.5852 55.6563 91.9604 56.5153C91.4918 57.1401 91.1013 58.3116 91.1013 59.0144C91.1013 59.7173 90.7109 60.5764 90.2423 60.8887C89.3051 61.4354 89.4613 60.1078 90.7889 55.7344C91.3356 53.86 91.3356 53.7819 89.9299 55.2658C88.9146 56.281 88.446 57.6868 88.5241 59.7954C88.6022 61.904 88.3679 62.7631 87.7432 62.5288C87.1184 62.2945 86.8841 60.7326 86.9622 57.9992C87.1184 54.4067 87.0403 54.0943 86.3374 55.7344L85.5564 57.6868L84.385 55.7344L83.2135 53.7819L83.604 56.281C84.0726 59.0144 83.2916 59.5611 81.7297 57.6868C80.2458 55.8905 79.543 56.281 79.2306 59.0144C78.9182 61.9821 77.2782 62.8412 76.8096 60.264C76.5753 58.9363 76.4191 59.1706 76.341 61.0449C76.2629 63.7783 74.701 63.8564 74.701 61.123C74.701 60.3421 74.3105 59.6392 73.8419 59.6392C73.2952 59.6392 73.2171 60.1859 73.5295 60.9668C73.8419 61.7478 74.2324 62.8412 74.4667 63.3879C74.7791 64.1688 74.3105 64.2469 72.6704 63.8564C70.6399 63.3098 70.4837 63.3879 71.499 64.6374C72.9047 66.3555 71.9676 67.2927 70.0152 66.0431C69.1561 65.4965 67.9065 65.106 67.2818 65.106C66.657 65.106 66.1103 64.5593 66.1103 63.9345C66.1103 63.3098 66.8132 62.7631 67.6722 62.7631C69.2342 62.7631 69.5466 62.0602 69.3123 59.483C69.2342 58.7801 69.937 57.7649 70.7961 57.2963C71.8114 56.7496 72.28 55.8905 72.0457 55.2658C71.499 53.9381 71.8895 53.86 73.92 55.1096C75.0915 55.8905 75.6381 55.8124 76.9658 54.641C78.1372 53.6257 78.3715 52.8448 77.9029 51.9076C77.4344 51.1266 77.5125 49.9552 78.2153 48.7056C78.762 47.6123 79.4649 46.2065 79.6211 45.5036C80.2458 43.5512 85.2441 44.4884 86.3374 46.8313C86.8841 48.1589 87.8213 48.7056 89.3832 48.7056C90.5547 48.7056 92.7414 49.5647 94.2252 50.658C97.0367 52.6886 98.1301 52.6105 98.1301 50.1895C98.1301 48.0808 101.488 46.597 103.831 47.6904C104.768 48.1589 106.174 48.7837 107.033 49.018C107.892 49.3304 108.283 49.9552 107.97 50.658C107.502 51.9857 109.454 52.2981 110.235 51.0485C110.86 49.9552 112.188 50.8142 112.188 52.2981C112.188 54.0943 114.218 55.7344 116.405 55.7344C117.498 55.7344 118.435 55.5001 118.435 55.1096C118.435 54.7972 119.372 53.9381 120.466 53.1572C122.106 51.9076 122.653 51.9076 123.746 52.6886C124.995 53.6257 124.995 53.6257 123.824 52.2981C122.731 51.1266 122.262 51.0485 120.778 51.8295C117.889 53.3914 117.967 51.9076 120.934 49.018C122.496 47.6123 123.98 46.3627 124.136 46.3627C124.371 46.3627 124.683 47.0656 124.917 48.0028C125.152 48.9399 125.776 49.4866 126.323 49.3304C126.87 49.1742 127.963 49.6428 128.822 50.5019C129.994 51.6733 130.15 52.1419 129.291 52.6105C127.885 53.4695 131.556 54.4067 134.523 53.9381C136.476 53.7038 136.398 53.6257 133.898 53.4695C132.258 53.4695 130.931 53.2352 130.931 53.0791C130.931 52.8448 131.712 51.8295 132.727 50.8923C134.523 48.9399 138.038 48.7056 136.398 50.658C135.773 51.3609 135.851 51.7514 136.788 52.1419C137.647 52.4543 137.96 52.0638 137.96 50.658C137.96 49.4085 138.428 48.7056 139.131 48.7056C139.756 48.7056 140.302 49.018 140.302 49.4085C140.302 49.799 141.708 49.799 143.582 49.3304C148.034 48.3932 148.503 47.6904 144.285 48.3932L140.927 48.9399L142.177 46.5189C143.582 43.7855 142.802 40.4273 140.693 39.6464C139.912 39.334 139.678 38.6311 139.99 37.6159C140.381 36.2882 140.224 36.132 138.897 36.6006C137.413 37.0692 137.335 36.913 138.038 34.492C139.053 30.8995 138.975 30.8214 137.1 33.7891C136.163 35.2729 135.695 37.1473 135.929 38.0844C136.241 39.334 135.773 40.1931 134.055 41.2864C132.727 42.1455 131.712 43.3169 131.712 43.7855C131.712 44.3322 131.165 44.8008 130.462 44.8008C129.759 44.8008 129.056 45.5036 128.822 46.3627C128.275 48.3151 128.197 48.3151 126.245 46.3627C124.449 44.5665 124.761 43.2388 127.182 43.2388C128.041 43.2388 128.9 42.6141 129.135 41.6769C129.369 40.8178 129.759 40.115 130.072 40.115C130.306 40.115 131.399 39.334 132.493 38.4749C134.367 36.913 133.898 36.913 130.384 38.3187C129.603 38.6311 129.291 38.4749 129.603 38.0063C129.916 37.5378 129.603 36.9911 128.978 36.6787C128.275 36.4444 127.807 36.6787 127.807 37.3816C127.807 39.2559 126.245 38.7092 126.167 36.7568C126.089 35.1168 126.089 35.1168 125.542 36.9911L124.995 38.9435L124.058 37.1473C122.731 34.8044 121.637 34.9606 120.7 37.772C119.607 40.8959 118.435 40.7397 118.435 37.5378C118.435 35.8196 118.201 35.351 117.732 36.132C117.342 36.7568 117.186 37.694 117.42 38.2406C117.576 38.7092 117.42 39.4121 116.951 39.6464C116.561 39.8807 115.78 38.8654 115.311 37.3035C114.687 35.4291 114.14 34.8044 113.749 35.4291C113.281 36.132 112.89 36.0539 112.266 34.9606C111.563 33.7891 111.563 34.0234 111.953 36.132L112.422 38.8654L109.61 35.6634C107.97 33.9453 106.721 32.071 106.721 31.6024C106.721 30.1185 104.534 30.6652 103.987 32.3053L103.441 33.9453L100.785 32.3053C97.4272 30.3528 97.3491 30.3528 97.3491 32.3053C97.3491 33.1643 96.8024 33.8672 96.1776 33.8672C95.1624 33.8672 95.0843 33.5548 95.8652 32.1491C96.5681 30.7433 96.5681 30.5871 95.5529 30.9776C94.5376 31.3681 94.3814 30.8995 94.6938 28.5566L95.0062 25.667L94.069 28.7128C92.8976 32.2272 91.1013 33.3205 91.0232 30.5871C91.0232 29.5719 90.7889 29.2595 90.5547 29.7281C90.3204 30.4309 89.6956 30.3528 88.2898 29.4157C86.6498 28.4004 86.4155 28.3223 86.8841 29.4157C87.1184 30.0405 86.9622 30.8214 86.4936 31.1338C86.025 31.3681 85.6345 32.3834 85.7126 33.3205C85.7126 35.0387 85.7126 34.9606 86.4936 33.1643C87.1184 31.6805 87.4308 31.5243 88.3679 32.3053C89.0708 32.8519 90.4766 33.0862 91.8823 32.7738C93.6004 32.4615 94.2252 32.6176 94.2252 33.4767C94.2252 34.8044 96.6462 35.0387 97.8958 33.7891C98.5205 33.1643 98.911 33.1643 99.2234 33.7891C99.5358 34.2577 100.317 34.6482 101.02 34.6482C101.644 34.6482 103.128 35.351 104.222 36.2882C106.018 37.694 106.33 37.772 106.565 36.6787C107.033 34.492 108.751 35.351 110.547 38.553C112.578 42.1455 114.999 43.8636 116.327 42.536C117.732 41.1302 118.435 41.5207 118.435 43.6293C118.435 44.7227 118.045 45.5817 117.576 45.5817C117.186 45.5817 117.03 45.1132 117.342 44.5665C117.81 43.8636 117.654 43.8636 116.717 44.6446C115.858 45.3475 115.311 45.4256 114.921 44.8008C114.687 44.4103 113.593 44.0198 112.5 44.0198C111.407 44.0198 110.391 43.4731 110.157 42.8484C109.845 42.2236 108.986 41.6769 108.126 41.6769C107.189 41.6769 106.721 41.2083 106.877 40.4273C107.033 39.6464 106.721 38.9435 106.252 38.7873C105.315 38.4749 105.315 40.7397 106.174 42.2236C106.486 42.7703 107.189 43.0045 107.736 42.7703C108.283 42.6141 109.064 43.2388 109.454 44.176C110.079 45.5036 110.782 45.8941 112.422 45.7379C114.14 45.5817 114.687 45.9722 115.311 47.6123C115.936 49.2523 115.936 49.8771 115.155 50.4238C113.749 51.2828 112.968 51.2047 112.968 50.2676C112.968 49.799 112.109 49.4866 111.016 49.4866C109.923 49.4866 109.064 49.0961 109.064 48.7056C109.064 48.237 108.205 47.9247 107.189 47.9247C106.096 47.9247 105.003 47.5342 104.768 47.1437C103.441 44.957 96.0214 47.6123 96.8805 49.9552C97.1148 50.58 96.8024 51.0485 96.1776 51.0485C95.631 51.0485 94.9281 50.3457 94.6157 49.5647C94.3033 48.3932 93.288 47.9247 90.867 47.7685C88.3679 47.6123 87.4308 47.1437 86.806 45.7379C86.4155 44.8008 85.7907 44.0198 85.4784 44.0198C85.0879 44.0198 84.8536 43.1607 84.8536 42.0674C84.8536 40.974 84.6193 40.115 84.3069 40.115C83.9164 40.115 83.604 38.553 83.4478 36.6006C83.1354 31.6024 81.964 28.9471 80.4801 29.4938C79.8554 29.7281 79.543 29.65 79.7773 29.1814C80.5582 27.9318 79.1525 28.3223 75.8724 30.3528C74.1543 31.4462 71.9676 32.3053 71.0304 32.3053C68.2189 32.3053 65.876 35.1948 66.4227 37.8501C66.657 39.0997 66.7351 40.115 66.5008 40.115C66.3446 40.115 65.095 38.9435 63.8455 37.6159C61.5807 35.1948 61.1121 35.0387 55.8015 34.9606C48.6947 34.8825 46.1175 34.1796 47.367 32.6176C49.0071 30.7433 47.8356 30.2747 46.0394 32.071C44.7898 33.3986 44.6336 33.8672 45.4146 33.8672C46.9765 33.8672 46.8984 36.7568 45.2584 37.6159C44.4774 38.0844 43.1498 38.0844 41.8221 37.6159C38.464 36.4444 36.1992 37.0692 35.6525 39.334C35.262 41.1302 34.7934 41.2864 30.42 41.5207C27.1399 41.6769 25.2656 42.1455 24.5627 43.0045C23.7037 44.176 23.7037 44.2541 25.1094 43.6293C25.9685 43.2388 28.8581 42.7703 31.5914 42.6141C36.2773 42.3017 36.5116 42.2236 36.9801 40.0369C37.4487 37.5378 37.9173 37.3816 41.5879 38.7092C42.9936 39.1778 44.6336 39.334 45.4927 38.9435C46.3518 38.6311 47.367 38.3968 47.9137 38.4749C48.3823 38.553 48.6166 38.0063 48.3823 37.0692C47.9918 35.6634 48.3823 35.5853 54.3958 35.8196C60.253 36.0539 60.8778 36.2101 62.8302 38.3187C64.0017 39.5683 65.5636 40.8959 66.3446 41.1302C67.9846 41.755 67.8284 44.0979 66.1884 44.6446C65.5636 44.8789 65.3293 44.6446 65.6417 44.0979C65.9541 43.6293 65.7198 43.2388 65.0169 43.2388C64.3141 43.2388 63.7674 42.8484 63.7674 42.3798C63.7674 41.9112 63.0645 41.755 62.1274 42.0674C60.9559 42.4579 60.4092 42.2236 60.0968 40.974C59.7064 39.334 58.3006 38.6311 58.3006 40.115C58.3006 40.5054 57.7539 40.8959 57.1292 40.8959C56.5825 40.8959 55.6453 41.5207 55.2548 42.2236C54.7862 43.0045 54.3958 43.2388 54.3958 42.6922C54.3958 42.1455 53.9272 41.9112 53.3024 42.1455C51.7405 42.7703 50.9595 41.0521 52.0528 39.7245C52.6776 38.9435 52.7557 38.553 52.209 38.553C51.7405 38.553 50.8814 39.1778 50.3347 39.8807C49.788 40.6616 48.7728 41.3645 48.148 41.5207C46.0394 41.9893 45.4146 43.1607 46.7423 44.176C48.2261 45.4256 49.1633 47.9247 48.148 47.9247C47.6794 47.9247 47.367 47.4561 47.367 46.9094C47.367 46.2065 47.2108 46.2065 46.7423 46.9094C46.4299 47.378 45.2584 47.6904 44.087 47.6904C42.2907 47.5342 41.9783 47.2218 42.1345 45.4256C42.2126 44.2541 41.9783 43.2388 41.5098 43.0826C40.4164 42.7703 40.0259 46.9875 41.0412 48.237C41.666 49.018 41.5098 49.6428 40.3383 50.658C39.1669 51.7514 39.0107 52.3762 39.6354 53.6257C40.4164 55.0315 40.3383 55.1096 38.3078 54.641C36.2773 54.1724 36.1992 54.2505 37.4487 55.2658C38.5421 56.1248 38.6202 56.7496 37.9954 58.3896C37.0582 60.8887 35.6525 61.0449 35.5744 58.6239C35.5744 57.1401 35.4963 57.062 34.9496 58.3116C34.6372 59.0925 34.0905 59.7173 33.7782 59.6392C33.3877 59.5611 32.7629 59.9516 32.3724 60.5764C31.9819 61.2011 31.9038 60.7326 32.2162 59.2487C32.7629 57.062 32.6848 56.9839 31.2791 58.0773C30.4981 58.6239 29.4047 59.7173 28.8581 60.264C28.0771 61.2792 27.7647 61.0449 26.9837 59.1706C26.0466 57.062 25.9685 56.9839 25.7342 58.6239C25.3437 60.6545 24.8751 60.8107 23.0008 59.3268C21.5169 58.2335 21.1265 56.1248 22.2979 55.422C22.6884 55.1877 24.0941 55.3439 25.4999 55.8124C28.8581 56.9839 30.0295 55.8124 28.2333 53.0791C26.7494 50.8142 27.1399 45.9722 28.8581 45.3475C29.4828 45.0351 29.4828 44.8789 28.8581 44.8789C28.3895 44.8008 27.2961 45.8941 26.437 47.2218L24.9532 49.6428L24.4065 47.6123C23.7817 45.1913 22.6884 44.957 21.9855 47.1437C21.6731 48.0028 21.1265 48.4713 20.6579 48.237C20.1893 47.9247 19.955 48.1589 20.1893 48.7837C20.4236 49.4085 21.2045 49.799 21.9074 49.7209C22.8446 49.7209 23.0789 50.0333 22.8446 50.8142C22.6103 51.439 22.376 52.1419 22.376 52.2981C22.376 52.4543 22.0636 52.6105 21.595 52.6105C21.2045 52.6105 20.8141 52.1419 20.8141 51.5952C20.8141 50.9704 20.0331 49.8771 19.0959 49.018L17.3778 47.5342L18.7054 49.6428C20.5798 52.6105 20.4236 52.7667 17.2216 51.439C13.473 49.8771 13.0044 49.9552 15.3473 51.8295C17.6902 53.7038 21.4388 53.86 23.7817 52.1419C25.8123 50.7361 27.0618 51.2828 27.0618 53.5476C27.0618 54.8753 26.7494 55.0315 25.0313 54.641C23.9379 54.3286 21.8293 54.5629 20.4236 55.1096C18.1588 55.8905 17.534 55.8124 16.3625 54.7972C15.4254 54.0162 14.1758 53.7038 12.8482 53.9381C11.0519 54.2505 10.6615 54.0943 10.6615 52.8448C10.6615 51.9857 11.13 50.658 11.7548 49.799C12.7701 48.4713 12.692 48.0808 10.8177 46.1284C8.94333 44.0979 9.33381 43.0045 11.2862 44.957C11.9891 45.6598 12.2234 45.5817 12.2234 44.3322C12.2234 42.536 11.4424 41.2864 9.88049 40.6616C8.94333 40.3492 9.02142 40.1931 10.1148 40.1931C10.8177 40.115 11.4424 39.7245 11.4424 39.2559C11.4424 38.8654 11.7548 38.6311 12.1453 38.9435C12.5358 39.1778 13.0825 38.7092 13.3949 37.8501C13.9415 36.0539 16.1282 35.1168 17.2216 36.2101C17.7683 36.7568 17.6121 36.9911 16.6749 36.9911C15.9721 36.9911 15.3473 37.3035 15.3473 37.6159C15.3473 38.8654 17.2997 40.115 19.3302 40.115C21.5169 40.115 22.376 38.9435 22.376 35.7415C22.376 34.492 22.6884 34.0234 23.5475 34.3358C24.1722 34.5701 25.578 33.8672 26.6713 32.7738C27.7647 31.6805 29.0142 30.7433 29.3266 30.7433C29.7171 30.7433 30.8105 29.4938 31.8257 28.0099C32.841 26.5261 33.9344 25.2765 34.3248 25.2765C35.262 25.2765 34.9496 26.2137 33.5439 27.9318C32.1381 29.5719 32.1381 29.5719 33.7782 28.1661C35.4182 26.7604 35.4963 26.8385 37.2144 29.1814C38.1516 30.509 39.0888 31.4462 39.2449 31.29C39.7916 30.7433 37.8392 26.8385 37.0582 26.8385C36.7458 26.8385 36.4335 26.2918 36.4335 25.667C36.4335 23.7927 34.0125 23.246 32.841 24.886C31.8257 26.2137 31.7476 26.2137 31.201 24.6518C30.6543 23.1679 30.42 23.1679 28.3895 24.1832ZM30.9667 27.0728C30.9667 28.7128 30.0295 29.2595 28.8581 28.3223C27.3742 27.0728 27.6085 26.0575 29.4047 26.0575C30.2638 26.0575 30.9667 26.5261 30.9667 27.0728ZM82.0421 32.4615C82.6669 34.8044 82.6669 38.0844 82.0421 39.6464C81.6516 40.6616 81.3392 40.7397 80.4801 40.0369C79.6211 39.334 79.3868 39.4121 79.3868 40.4273C79.3868 41.9893 77.122 42.0674 76.5753 40.5054C76.2629 39.8807 75.7943 39.4902 75.4038 39.7245C75.0915 39.9588 75.0134 40.7397 75.2477 41.3645C75.6381 42.4579 75.4819 42.536 74.0762 41.755C72.1238 40.7397 71.1085 39.334 72.28 39.334C73.6076 39.334 73.2952 38.0844 71.499 36.132C70.6399 35.1168 70.0932 34.7263 70.4056 35.1948C70.6399 35.7415 70.4837 36.2101 70.0932 36.2101C69.078 36.2101 68.9218 34.1015 69.937 33.5548C71.1866 32.7738 72.9047 33.8672 73.8419 35.9758C74.3105 37.0692 74.9353 37.772 75.1695 37.5378C75.4038 37.3035 75.2477 36.4444 74.8572 35.6634C74.0762 34.1015 74.3886 32.3053 75.56 32.3053C75.9505 32.3053 76.2629 33.0081 76.2629 33.7891C76.2629 35.351 78.2153 36.5225 79.4649 35.7415C79.8554 35.5072 80.1678 34.3358 80.1678 33.0081C80.1678 30.3528 81.3392 29.9623 82.0421 32.4615ZM20.9703 36.2101C20.8141 37.4597 20.3455 38.553 20.0331 38.553C19.3302 38.553 18.4712 33.7891 19.0178 32.8519C19.8769 31.4462 21.2826 33.9453 20.9703 36.2101ZM105.94 33.5548C105.94 34.1796 105.627 34.492 105.159 34.2577C104.768 34.0234 104.378 33.4767 104.378 33.0081C104.378 32.6176 104.768 32.3053 105.159 32.3053C105.627 32.3053 105.94 32.8519 105.94 33.5548ZM68.8437 36.9911C69.078 37.3816 68.9218 37.772 68.5313 37.772C68.0627 37.772 67.6722 37.3816 67.6722 36.9911C67.6722 36.5225 67.8284 36.2101 67.9846 36.2101C68.2189 36.2101 68.6094 36.5225 68.8437 36.9911ZM126.635 40.5835C127.885 41.2864 127.495 41.4426 124.449 41.4426C121.012 41.4426 119.841 40.7397 121.481 39.8026C121.872 39.5683 122.028 38.553 121.793 37.5378C121.325 35.8196 121.325 35.8196 123.277 37.772C124.293 38.8654 125.854 40.115 126.635 40.5835ZM138.975 39.6464C139.209 40.2712 138.897 40.974 138.194 41.2083C136.632 41.8331 136.241 41.4426 136.866 39.8026C137.491 38.2406 138.428 38.1625 138.975 39.6464ZM71.2647 41.4426C70.6399 42.0674 68.4532 41.0521 68.4532 40.115C68.4532 39.5683 68.9218 39.5683 70.0932 40.115C70.9523 40.6616 71.499 41.2083 71.2647 41.4426ZM83.6821 41.6769C83.9164 42.0674 83.7602 42.4579 83.3697 42.4579C82.9011 42.4579 82.5107 42.0674 82.5107 41.6769C82.5107 41.2083 82.6669 40.8959 82.8231 40.8959C83.0573 40.8959 83.4478 41.2083 83.6821 41.6769ZM141.708 42.6922C141.864 43.3169 140.849 44.957 139.443 46.2846C137.491 48.1589 136.71 48.4713 135.539 47.8466C133.352 46.7532 133.664 45.3475 135.851 46.3627C137.179 46.9875 137.022 46.7532 135.304 45.2694L133.039 43.395L135.851 42.8484C137.491 42.536 138.975 41.9893 139.209 41.5207C139.834 40.5054 141.396 41.2083 141.708 42.6922ZM49.7099 43.3169C49.7099 43.7074 49.1633 44.0198 48.5385 44.0198C47.367 44.0198 46.9765 43.0826 47.8356 42.2236C48.4604 41.5988 49.7099 42.3017 49.7099 43.3169ZM123.355 44.3322C121.95 46.2846 120.075 47.4561 119.451 46.8313C119.294 46.6751 119.372 45.6598 119.607 44.5665C119.997 43.1607 120.778 42.4579 122.184 42.3017C124.995 41.9112 125.074 42.0674 123.355 44.3322ZM70.0152 44.4884C70.0152 45.1132 69.7028 45.5036 69.3123 45.2694C68.9218 45.0351 68.4532 45.5817 68.2189 46.5189C67.9065 47.4561 67.516 48.0808 67.3599 47.8466C66.657 47.2218 68.6875 42.536 69.3904 42.9264C69.7028 43.1607 70.0152 43.8636 70.0152 44.4884ZM56.4263 45.2694C56.0358 46.3627 55.7234 46.4408 54.9424 45.6598C54.2396 44.957 54.2396 44.5665 55.1767 44.0198C56.5825 43.1607 57.0511 43.5512 56.4263 45.2694ZM8.31855 44.8008C8.31855 45.1913 7.92807 45.5817 7.45948 45.5817C7.069 45.5817 6.91281 45.1913 7.1471 44.8008C7.38139 44.3322 7.77187 44.0198 8.00616 44.0198C8.16236 44.0198 8.31855 44.3322 8.31855 44.8008ZM60.6435 44.8008C60.6435 45.1913 60.3311 45.5817 59.8625 45.5817C59.4721 45.5817 59.0816 45.1913 59.0816 44.8008C59.0816 44.3322 59.4721 44.0198 59.8625 44.0198C60.3311 44.0198 60.6435 44.3322 60.6435 44.8008ZM52.8338 46.3627C52.8338 46.7532 52.5214 47.1437 52.0528 47.1437C51.6624 47.1437 51.2719 46.7532 51.2719 46.3627C51.2719 45.8941 51.6624 45.5817 52.0528 45.5817C52.5214 45.5817 52.8338 45.8941 52.8338 46.3627ZM77.8248 47.1437C77.8248 48.0028 77.5125 48.7056 77.0439 48.7056C76.6534 48.7056 76.2629 48.0028 76.2629 47.1437C76.2629 46.2846 76.6534 45.5817 77.0439 45.5817C77.5125 45.5817 77.8248 46.2846 77.8248 47.1437ZM57.9101 47.1437C57.6758 47.5342 57.0511 47.9247 56.6606 47.9247C56.192 47.9247 56.1139 47.5342 56.3482 47.1437C56.5825 46.6751 57.2072 46.3627 57.5977 46.3627C58.0663 46.3627 58.1444 46.6751 57.9101 47.1437ZM72.3581 47.5342C72.3581 48.1589 73.2171 48.8618 74.3105 49.1742C75.56 49.4866 76.2629 50.1895 76.2629 51.1266C76.2629 53.5476 75.9505 53.7819 73.3733 53.5476C71.9676 53.3914 70.7961 53.6257 70.7961 54.0162C70.7961 55.2658 65.4074 55.5782 64.3922 54.4067C63.7674 53.6257 64.1579 53.3914 66.3446 53.3914C69.2342 53.3914 70.4837 52.4543 69.6247 51.0485C69.3123 50.58 68.6875 50.7361 67.9846 51.439C67.2818 52.0638 65.9541 52.6105 64.9388 52.6105C63.6893 52.6105 62.8302 53.3133 62.0493 54.9534C60.7216 57.9992 59.0816 57.6868 57.2853 54.0943C55.0205 49.4085 57.3634 47.2218 62.5959 49.0961C63.9236 49.5647 65.4074 49.9552 65.9541 49.799C66.4227 49.7209 67.516 49.6428 68.3751 49.5647C69.1561 49.5647 70.0152 48.7837 70.2494 47.9247C70.718 46.1284 72.3581 45.816 72.3581 47.5342ZM132.18 50.0333C132.024 50.2676 131.477 50.1895 131.009 49.8771C130.384 49.5647 130.462 48.8618 131.087 47.6904L132.102 45.9722L132.337 47.7685C132.493 48.7837 132.415 49.799 132.18 50.0333ZM45.3365 50.1895C45.5708 50.5019 45.1022 51.439 44.2432 52.22C42.7593 53.6257 42.6812 53.5476 42.6812 51.5952C42.6812 49.5647 44.3993 48.6275 45.3365 50.1895ZM55.411 52.7667C55.7234 55.2658 56.5044 56.6715 58.3006 58.1554L60.7216 60.264L58.5349 60.9668C57.3634 61.3573 54.63 61.5916 52.4433 61.4354C46.1956 61.0449 45.5708 61.0449 42.9155 61.6697C41.5098 61.904 40.3383 62.5288 40.3383 62.9193C40.3383 63.3879 39.7916 63.466 39.0888 63.2317C38.3859 62.9974 36.9801 63.466 35.8868 64.2469C34.0125 65.8089 31.2791 65.6527 32.2943 64.0907C32.6067 63.544 32.1381 63.466 30.8886 63.8564C26.2028 65.1841 24.4846 65.3403 25.0313 64.4812C25.3437 63.9345 26.2028 63.544 26.9837 63.544C27.7647 63.544 28.8581 62.9974 29.4047 62.3726C30.3419 61.2792 30.5762 61.2792 31.8257 62.4507C33.0753 63.544 33.3877 63.544 35.9649 62.3726C37.4487 61.6697 39.2449 60.1859 39.9478 59.1706C40.5726 58.1554 41.5879 57.2963 42.1345 57.2963C43.8527 57.2963 48.929 51.9857 48.4604 50.7361C48.0699 49.7209 48.6166 49.4866 51.5062 49.4866H54.9424L55.411 52.7667ZM41.9002 51.3609C41.9002 51.5952 41.5879 51.9857 41.1193 52.22C40.7288 52.4543 40.3383 52.2981 40.3383 51.9076C40.3383 51.439 40.7288 51.0485 41.1193 51.0485C41.5879 51.0485 41.9002 51.2047 41.9002 51.3609ZM66.8913 56.1248C68.7656 55.5001 68.9218 56.3591 67.2037 58.702C66.3446 59.8735 66.2665 60.4202 66.9694 60.4202C67.516 60.4202 67.6722 60.6545 67.3599 60.9668C67.0475 61.3573 66.3446 61.5916 65.876 61.5916C65.3293 61.5916 64.8608 62.5288 64.7046 63.7002C64.3922 66.1212 63.6112 66.4336 62.2055 64.7155C60.7997 62.9974 61.8931 59.6392 63.8455 59.6392C65.3293 59.6392 65.3293 59.5611 64.236 58.3896C62.5959 56.7496 62.5178 54.3286 64.1579 55.7344C64.7827 56.2029 65.9541 56.4372 66.8913 56.1248ZM23.157 60.4202C23.157 60.8107 22.7665 61.2011 22.2979 61.2011C21.9074 61.2011 21.7512 61.5135 21.9855 61.9821C22.2198 62.3726 22.0636 62.7631 21.6731 62.7631C20.6579 62.7631 20.6579 62.5288 21.2826 60.8887C21.8293 59.483 23.157 59.1706 23.157 60.4202ZM86.1031 62.6069C88.3679 64.2469 88.446 65.106 86.3374 65.106C84.5412 65.106 82.5107 63.3879 82.5107 61.8259C82.5107 61.2011 82.1983 61.2792 81.6516 62.1383C81.2611 62.9193 80.324 63.544 79.6992 63.544C78.762 63.544 78.762 63.3098 79.543 61.9821C80.7144 60.1859 83.0574 60.4202 86.1031 62.6069ZM76.2629 66.6679C76.2629 67.0584 75.7162 67.4489 75.0134 67.4489C74.3886 67.4489 74.0762 67.0584 74.3105 66.6679C74.5448 66.1993 75.0915 65.887 75.56 65.887C75.9505 65.887 76.2629 66.1993 76.2629 66.6679ZM116.873 67.0584C117.967 67.6832 118.67 68.2299 118.435 68.308C118.201 68.308 116.795 68.5423 115.311 68.6984C112.812 69.0108 112.734 68.9327 113.984 67.9175C115.077 67.1365 115.155 66.746 114.374 66.4336C113.828 66.1993 113.749 65.9651 114.14 65.9651C114.609 65.9651 115.78 66.4336 116.873 67.0584ZM174.665 68.308C174.665 68.6984 174.353 69.0108 173.884 69.0108C173.494 69.0108 173.103 68.4642 173.103 67.7613C173.103 67.1365 173.494 66.8241 173.884 67.0584C174.353 67.2927 174.665 67.8394 174.665 68.308ZM176.696 67.9175C176.305 69.0108 176.383 69.0889 177.398 68.2299C178.804 67.0584 178.96 68.308 177.633 69.6356C176.149 71.1195 175.446 70.729 175.446 68.6203C175.446 67.527 175.837 66.6679 176.305 66.6679C176.774 66.6679 176.93 67.2146 176.696 67.9175ZM126.245 73.2281C126.245 74.3995 123.121 76.8986 120.544 77.8358C118.357 78.6168 119.138 75.1024 121.325 74.009C122.34 73.5405 122.887 72.9157 122.574 72.6814C122.34 72.369 123.043 72.1347 124.136 72.1347C125.464 72.1347 126.245 72.5252 126.245 73.2281ZM131.556 73.0719C131.165 74.3214 127.807 74.9462 127.807 73.8528C127.807 72.9938 129.135 72.2909 130.775 72.2128C131.399 72.1347 131.712 72.6033 131.556 73.0719ZM127.182 77.7577C126.714 78.2263 126.011 78.3825 125.698 78.0701C125.386 77.7577 125.62 77.211 126.245 76.8205C127.729 75.8834 128.354 76.5862 127.182 77.7577ZM190.831 81.8968C190.831 82.5997 190.05 83.0683 188.957 83.0683C187.863 83.0683 187.161 82.5997 187.161 81.8968C187.161 81.194 187.863 80.7254 188.957 80.7254C190.05 80.7254 190.831 81.194 190.831 81.8968ZM98.1301 89.316C98.1301 89.7065 97.8177 90.097 97.3491 90.097C96.9586 90.097 96.5681 89.7065 96.5681 89.316C96.5681 88.8475 96.9586 88.5351 97.3491 88.5351C97.8177 88.5351 98.1301 88.8475 98.1301 89.316Z" fill="#73081E"/>
<path d="M135.617 43.7074C135.617 44.4103 138.74 45.5036 139.053 44.8789C139.287 44.4884 138.662 44.0198 137.569 43.8636C136.476 43.6293 135.617 43.5512 135.617 43.7074Z" fill="#73081E"/>
<path d="M52.209 26.9947C51.6624 27.5413 51.2719 28.3223 51.2719 28.869C51.2719 29.3376 50.569 30.6652 49.6318 31.8367C48.4604 33.3205 48.3042 33.8672 49.1633 33.8672C50.3347 33.8672 51.8186 32.3052 53.4586 29.4157C55.0986 26.3699 54.3177 24.886 52.209 26.9947Z" fill="#73081E"/>
<path d="M39.5573 28.088C39.6354 31.2119 43.8527 31.9929 45.5708 29.1814L46.7423 27.2289L45.1022 29.1033C43.8527 30.509 43.4622 30.6652 43.4622 29.65C43.4622 28.1661 41.9003 27.9318 41.9003 29.3376C41.9003 29.9623 41.3536 29.728 40.7288 28.869C40.104 28.0099 39.5573 27.6194 39.5573 28.088Z" fill="#73081E"/>
<path d="M85.6346 38.553C85.2441 39.2559 85.4003 40.1149 86.1031 40.6616C86.8841 41.4426 87.3527 41.3645 88.2899 39.9587C88.9927 39.0216 89.5394 37.9282 89.5394 37.6158C89.5394 36.6006 86.2593 37.3034 85.6346 38.553Z" fill="#73081E"/>
<path d="M13.5511 43.3169C13.7853 45.1913 14.0977 46.9094 14.2539 47.0656C14.9568 47.8465 14.4882 41.9893 13.8634 40.974C13.3949 40.193 13.2387 41.0521 13.5511 43.3169Z" fill="#73081E"/>
<path d="M30.1857 45.5036C30.1857 45.8941 31.7477 47.2217 33.622 48.3932C35.9649 49.877 36.824 50.8142 36.1992 51.2047C35.4963 51.6733 35.4963 51.8295 36.1992 51.8295C37.9173 51.8295 39.4012 49.6428 38.9326 47.5341C38.6983 46.2065 38.3859 45.7379 37.9954 46.3627C37.5268 47.0656 37.1363 46.9094 36.5116 45.8941C35.6525 44.5665 35.6525 44.5665 36.043 46.1284C36.6678 48.3151 36.4335 48.3151 32.9191 46.3627C31.4353 45.5036 30.1857 45.1131 30.1857 45.5036Z" fill="#73081E"/>
<path d="M152.72 47.0656C148.581 48.9399 145.925 51.8295 148.425 51.8295C148.971 51.8295 149.674 51.1266 149.908 50.1894C150.143 49.2523 150.767 48.7056 151.392 48.9399C151.939 49.0961 153.11 48.7056 153.891 48.0027C155.297 46.8313 155.375 46.8313 154.985 48.9399C154.672 50.3456 154.828 50.8923 155.297 50.4237C155.688 50.0332 155.922 48.7837 155.766 47.7684C155.531 45.8941 155.531 45.816 152.72 47.0656Z" fill="#73081E"/>
<path d="M176.852 48.8618C179.585 49.4865 180.132 49.877 180.132 51.3609C180.132 52.3761 180.679 53.6257 181.303 54.1724C182.319 55.0314 182.319 54.7971 181.616 52.5323C180.444 49.1742 178.882 47.9246 175.915 48.0027C173.728 48.0808 173.884 48.1589 176.852 48.8618Z" fill="#73081E"/>
<path d="M169.589 49.799C168.574 50.5019 167.402 50.6581 165.762 50.1895C163.419 49.4866 161.389 50.4238 161.389 52.1419C161.389 52.6105 161.779 52.3762 162.17 51.6733C162.794 50.58 163.419 50.5019 165.762 51.2047C167.714 51.7514 168.808 51.6733 169.12 51.1266C169.433 50.7362 170.526 50.0333 171.541 49.5647C172.635 49.1742 172.947 48.7837 172.244 48.7837C171.619 48.7056 170.37 49.1742 169.589 49.799Z" fill="#73081E"/>
<path d="M156.859 53.4695C155.453 54.7191 154.36 56.0467 154.516 56.3591C154.672 56.7496 156.078 55.6563 157.796 54.0162C161.389 50.5019 160.608 50.0333 156.859 53.4695Z" fill="#73081E"/>
<path d="M125.933 53.001C126.245 53.6257 126.714 54.1724 127.104 54.1724C127.416 54.1724 127.573 53.6257 127.338 53.001C127.026 52.3762 126.557 51.8295 126.167 51.8295C125.854 51.8295 125.698 52.3762 125.933 53.001Z" fill="#73081E"/>
<path d="M188.332 53.1571C189.191 53.9381 189.504 55.3438 189.347 56.9839C188.957 59.9515 189.894 59.7954 190.519 56.7496C190.987 54.4067 189.66 51.8295 188.098 51.8295C187.317 51.8295 187.395 52.1419 188.332 53.1571Z" fill="#73081E"/>
<path d="M183.646 53.3915C183.412 53.7819 183.724 54.1724 184.349 54.1724C185.052 54.1724 185.599 53.7819 185.599 53.3915C185.599 52.9229 185.286 52.6105 184.896 52.6105C184.427 52.6105 183.881 52.9229 183.646 53.3915Z" fill="#73081E"/>
<path d="M100.473 55.7344C100.473 56.1248 100.863 56.5153 101.254 56.5153C101.723 56.5153 102.035 56.1248 102.035 55.7344C102.035 55.2658 101.723 54.9534 101.254 54.9534C100.863 54.9534 100.473 55.2658 100.473 55.7344Z" fill="#73081E"/>
<path d="M145.769 58.7801C145.769 59.0925 146.238 59.7954 146.706 60.264C147.487 61.045 147.487 61.4354 146.628 61.904C145.769 62.4507 145.769 62.9193 146.863 64.4031C148.034 66.1213 148.112 66.1213 148.034 64.7155C147.644 60.3421 148.034 59.6392 150.767 59.6392C155.297 59.6392 154.516 58.4678 149.986 58.3897C147.644 58.3116 145.769 58.4678 145.769 58.7801Z" fill="#73081E"/>
<path d="M167.48 62.5287L167.246 65.4964L165.45 62.763C164.122 60.7325 163.732 60.4982 164.122 61.904C164.512 63.0754 164.278 63.9345 163.653 64.4031C162.951 64.7935 163.263 65.184 164.747 65.4964C167.168 66.1212 167.324 66.4336 165.606 68.3079C164.981 69.0108 164.747 69.8698 165.137 70.1041C165.528 70.3384 166.543 69.3232 167.324 67.8393C168.105 66.3555 169.355 65.1059 170.057 65.1059C171.541 65.1059 175.524 62.0601 174.118 61.9821C173.65 61.9821 172.947 62.2944 172.713 62.763C172.478 63.1535 171.854 63.544 171.307 63.544C170.682 63.544 170.682 63.3097 171.385 62.6068C171.932 62.0601 172.322 61.2792 172.322 60.8106C172.322 60.4201 171.776 60.7325 171.151 61.5135C170.526 62.2944 170.214 63.3097 170.526 63.7783C170.76 64.2469 170.604 64.325 170.135 64.0126C169.589 63.7002 169.198 62.6068 169.198 61.5135C169.198 58.4677 167.793 59.3268 167.48 62.5287Z" fill="#73081E"/>
<path d="M135.695 62.9974C134.679 65.5746 133.508 66.2774 132.102 65.106C131.477 64.5593 130.931 64.4031 130.931 64.7936C130.931 65.1841 130.54 64.9498 130.15 64.325C129.759 63.7002 129.369 63.5441 129.369 64.0126C129.369 64.5593 128.51 64.7155 127.416 64.4812C126.245 64.325 125.464 64.4812 125.464 65.0279C125.464 65.4965 126.557 65.887 127.807 65.887C129.135 65.887 130.15 66.1993 130.15 66.5117C130.15 67.1365 134.289 69.7918 135.304 69.7918C135.617 69.7918 135.226 69.2451 134.367 68.6204C133.039 67.6051 133.039 67.527 134.289 67.4489C134.992 67.4489 135.617 67.1365 135.617 66.746C135.617 66.3555 136.241 65.8089 137.022 65.6527C138.272 65.3403 138.272 65.2622 136.944 65.1841C135.773 65.106 135.695 64.8717 136.398 63.466C136.944 62.6069 137.1 61.6697 136.866 61.4354C136.632 61.2011 136.085 61.904 135.695 62.9974Z" fill="#73081E"/>
<path d="M194.189 63.7002C195.439 65.0279 195.986 65.1841 196.688 64.4812C198.172 62.9974 200.047 63.3878 202.311 65.4965C203.717 66.8241 204.342 67.0584 204.342 66.1993C204.342 64.6374 199.89 62.0602 198.016 62.5288C197.235 62.7631 196.532 63.2316 196.532 63.6221C196.532 64.0126 196.22 64.325 195.751 64.325C195.361 64.325 194.97 63.7783 194.97 63.1535C194.97 62.5288 194.424 61.9821 193.799 61.9821C192.784 61.9821 192.862 62.2945 194.189 63.7002Z" fill="#73081E"/>
<path d="M156.703 64.0126C156.703 64.4031 157.093 65.1841 157.64 65.7307C159.124 67.2146 157.64 67.8394 156.078 66.4336C153.969 64.4812 152.173 64.7155 153.969 66.6679C156.468 69.4013 161.467 67.9175 161.389 64.4812C161.311 63.2316 161.232 63.2316 160.295 64.4812C159.358 65.7307 159.202 65.7307 158.03 64.4812C157.328 63.7783 156.703 63.544 156.703 64.0126Z" fill="#73081E"/>
<path d="M151.939 69.0109C152.954 69.8699 154.516 70.5728 155.453 70.5728C156.703 70.4947 156.312 70.1042 154.047 69.0109C150.143 67.0585 149.518 67.0585 151.939 69.0109Z" fill="#73081E"/>
<path d="M199.422 69.2452C198.328 71.9786 198.875 74.5558 200.906 76.4301C202.077 77.5234 203.561 78.3825 204.264 78.3825C204.967 78.3825 205.201 78.1482 204.732 77.7577C203.405 76.8206 203.483 75.2586 204.889 75.8053C205.748 76.1177 205.982 76.0396 205.591 75.4148C205.279 74.8681 204.498 74.4777 203.795 74.4777C203.092 74.4777 202.78 74.0091 203.092 73.3062C204.732 69.2452 204.732 69.3233 203.327 70.4947C202.233 71.3538 201.999 71.3538 201.999 70.4947C201.999 69.5575 201.843 69.5575 201.296 70.4947C200.749 71.3538 200.515 71.1976 200.281 69.7137C200.047 68.0737 199.969 67.9956 199.422 69.2452Z" fill="#73081E"/>
<path d="M63.2988 72.1347C61.8931 73.5404 60.253 74.4776 58.9254 74.4776C57.2073 74.4776 56.7387 74.8681 56.7387 76.1957V77.8358L54.9424 76.1957C52.2872 73.6966 49.0071 74.009 45.0241 77.1329L41.666 79.7882L39.5573 78.2262C35.4182 75.1805 23.157 76.8205 23.157 80.413C23.157 81.0377 23.938 80.6472 25.0313 79.5539C27.2961 77.2891 28.9362 77.6015 31.5915 80.6472L33.3877 82.6778L32.4505 80.491C31.4353 78.2262 32.1381 76.5081 33.3096 78.3824C33.7782 79.0853 34.0906 79.1634 34.0906 78.6167C34.0906 77.9919 34.5591 77.9919 36.043 78.6167C38.2297 79.7101 38.464 81.1939 36.824 83.3806C35.4963 85.0988 35.262 84.474 36.4335 82.2873C37.0582 81.1158 36.902 80.9596 35.5744 81.272C34.7153 81.5063 33.7782 82.2092 33.5439 82.834C33.2315 83.6149 32.841 83.693 32.06 82.9901C31.201 82.2873 30.9667 82.3654 30.9667 83.1463C30.9667 83.693 30.1857 83.3806 29.0143 82.2873C27.9209 81.272 27.0618 80.8034 27.0618 81.3501C27.0618 82.9121 29.4047 84.474 32.6067 85.0207C35.3401 85.4893 36.1211 85.3331 37.8392 83.6149C39.0107 82.5997 40.8069 81.5063 41.9003 81.272C42.9936 80.9596 44.946 79.7882 46.2737 78.5386C49.2414 75.8833 53.6148 75.4147 55.6453 77.6796C56.3482 78.4605 57.2073 78.9291 57.5977 78.7729C57.9101 78.5386 58.3787 78.6948 58.6911 79.1634C59.394 80.3349 62.2055 80.1006 62.674 78.851C63.0645 77.9138 63.5331 77.8358 65.017 78.5386C66.5008 79.2415 67.2037 79.1634 68.4532 77.9919C69.3123 77.211 70.0152 76.1957 70.0152 75.8052C70.0152 75.3366 69.1561 75.8052 68.1408 76.7424C66.5008 78.3043 66.0322 78.3824 64.6265 77.4453C63.1426 76.5862 62.8302 76.5862 62.1274 77.7577C61.1121 79.4758 59.8626 79.5539 59.8626 77.9138C59.8626 77.1329 59.394 76.8205 58.6911 77.1329C58.0663 77.3672 57.5196 77.211 57.5196 76.8205C57.5196 76.3519 57.7539 76.0395 58.1444 75.9614C58.4568 75.9614 59.4721 75.8052 60.4873 75.7271C62.674 75.4928 68.6875 69.7918 66.8132 69.7918C66.1103 69.7918 64.5484 70.807 63.2988 72.1347ZM40.3383 80.2568C40.3383 80.491 40.0259 80.8815 39.5573 81.1158C39.1669 81.3501 38.7764 81.1939 38.7764 80.8034C38.7764 80.3349 39.1669 79.9444 39.5573 79.9444C40.0259 79.9444 40.3383 80.1006 40.3383 80.2568Z" fill="#73081E"/>
<path d="M144.676 71.51C141.786 72.9157 141.786 73.0719 143.036 74.4776C143.817 75.3367 145.066 76.1958 145.847 76.4301C146.706 76.7425 147.331 77.4453 147.331 77.992C147.331 79.5539 148.659 80.1787 150.221 79.2416C151.548 78.4606 151.548 78.4606 150.221 78.3825C149.44 78.3825 148.659 77.9139 148.425 77.2891C148.19 76.6644 146.941 75.7272 145.691 75.2586C143.036 74.1653 143.114 72.7595 145.769 72.1347C146.784 71.9004 147.722 71.2757 147.956 70.729C148.268 69.6356 148.503 69.5575 144.676 71.51Z" fill="#73081E"/>
<path d="M193.877 75.7272C192.003 77.5234 192.393 77.8358 194.58 76.352C195.673 75.6491 196.532 74.9462 196.532 74.79C196.532 74.0091 194.97 74.5558 193.877 75.7272Z" fill="#73081E"/>
<path d="M80.2459 79.5539L80.1678 81.8968L78.6058 79.9444L76.9658 77.992L77.5125 80.1006C78.1372 82.7559 77.4344 82.9121 75.4039 80.4911C74.3105 79.1634 73.9981 79.0853 73.92 80.0225C73.92 80.7254 74.6229 81.8968 75.4819 82.6778C76.341 83.4587 76.8096 84.474 76.4972 84.9426C76.1848 85.4112 76.4972 85.3331 77.2001 84.7864C78.2934 83.9273 78.5277 84.0054 78.8401 85.1769C79.3087 86.8169 79.0744 89.8627 78.4496 90.4875C78.2153 90.7218 77.4344 90.0189 76.7315 88.9255C75.7943 87.5979 74.7791 86.9731 73.6857 87.1293C72.7486 87.2074 71.499 87.0512 71.0304 86.7388C70.4056 86.3483 70.0152 86.5045 70.0152 86.9731C70.0152 87.4417 70.8742 88.1446 71.9676 88.535C73.0609 88.9255 73.92 89.4722 73.92 89.7065C73.92 90.7999 69.859 89.9408 68.4532 88.535C66.8913 86.9731 66.8913 87.0512 65.7979 89.1598L64.6265 91.2684L64.4703 88.535L64.3922 85.8017L63.5331 88.535L62.674 91.2684L62.3617 88.9255C62.0493 86.1921 60.6435 84.3178 60.6435 86.6607C60.6435 87.9103 60.4873 87.9884 59.8626 86.9731C58.7692 85.3331 58.8473 87.3636 59.8626 89.3941C60.4873 90.4094 60.4092 90.878 59.8626 90.878C59.0816 90.878 58.3006 89.4722 57.1292 85.8017L56.6606 84.2397L55.4891 85.8017C53.9272 87.9103 49.3195 87.9884 45.8051 86.0359L43.0717 84.474L45.6489 86.7388C47.0547 87.9103 48.148 89.1598 48.148 89.3941C48.148 90.4094 45.727 90.7999 43.8527 90.097C41.4317 89.1598 41.2755 90.2532 43.6965 91.8932C45.8051 93.3771 44.8679 94.5485 42.4469 93.3771C41.5098 92.9085 39.8697 92.4399 38.7764 92.2837C37.1363 92.0494 36.824 91.6589 36.9801 89.7065C37.0582 88.3789 36.902 87.9884 36.6678 88.7693C36.4335 89.6284 35.8087 90.0189 35.262 89.7846C34.481 89.5503 34.3248 89.7846 34.6372 90.6437C35.0277 91.6589 34.7934 91.8151 33.7782 91.4246C32.9191 91.0342 32.6067 91.1903 32.9972 91.8151C33.3877 92.4399 33.1534 92.518 32.06 92.1275C31.2791 91.737 30.1076 91.4246 29.639 91.4246C29.0924 91.4246 28.6238 90.878 28.5457 90.1751C28.5457 89.2379 28.3114 89.316 27.8428 90.4875C27.218 91.9713 27.218 91.9713 26.4371 90.097L25.578 88.1446V89.9408C25.4999 91.1903 26.0466 91.9713 27.0618 92.2056C28.8581 92.6742 29.0924 94.5485 27.6866 97.5162L26.8275 99.4686L24.2503 97.5162C20.9703 95.0171 19.7207 94.939 22.7665 97.5162L25.1094 99.3905L22.376 99.4686C20.8922 99.4686 18.9397 99.7029 18.0026 99.9372C16.5968 100.328 16.3625 100.015 16.2844 97.0476C16.2064 95.1733 16.5968 93.2209 17.2216 92.518C17.7683 91.8151 18.2369 90.6437 18.2369 89.9408C18.2369 88.8474 18.0026 88.7693 17.0654 89.4722C15.4254 90.878 13.5511 90.9561 14.0977 89.6284C14.5663 88.3008 13.3168 88.1446 12.5358 89.3941C12.2234 89.9408 12.8482 90.9561 13.8634 91.737C15.4254 92.9866 15.5816 93.299 14.5663 93.9237C13.7853 94.4704 13.2387 94.3923 12.8482 93.7675C12.4577 93.1428 12.1453 93.299 11.7548 94.2361C11.5205 94.939 10.8958 95.5638 10.5053 95.5638C10.0367 95.5638 10.1148 95.0171 10.6615 94.3923C11.5986 93.299 11.911 87.2074 11.13 86.4264C10.9739 86.2702 10.1148 86.0359 9.17763 85.8017C7.77188 85.5674 7.61569 85.7236 8.31856 87.0512C9.33382 88.8474 10.0367 89.0036 9.33382 87.2074C9.02143 86.3483 9.09953 86.114 9.7243 86.5045C10.9739 87.2855 10.8958 90.2532 9.56811 92.0494C8.55285 93.4552 8.47475 93.3771 7.92807 91.0342C7.69378 89.6284 7.06901 88.535 6.67852 88.535C6.20994 88.535 6.13184 88.8474 6.36613 89.316C6.60043 89.7065 6.99091 91.3465 7.2252 92.9085C7.45949 95.1733 7.3033 95.6419 6.36613 95.2514C5.74136 95.0171 4.648 94.5485 3.86703 94.2361C3.00797 93.9237 2.77367 94.0018 3.16416 94.6266C3.47655 95.1733 3.32035 95.5638 2.92987 95.5638C2.46129 95.5638 2.0708 94.7047 2.0708 93.6894C2.0708 92.5961 1.68032 91.5027 1.21174 91.2684C-0.896883 89.9408 8.24046 83.7711 11.6767 84.1616C12.8482 84.3178 13.7853 84.0835 13.7853 83.6149C13.7853 83.2245 14.332 83.3026 14.9568 83.8492C15.5816 84.3959 15.894 85.1769 15.6597 85.7236C15.4254 86.1921 15.7378 85.9578 16.3625 85.1769C17.3778 84.0054 17.6121 84.0054 18.4712 85.0207C19.7988 86.5826 21.0484 86.5045 22.6884 84.7083C24.016 83.2245 24.016 83.2245 22.4541 83.6149C21.5169 83.8492 20.8141 84.3959 20.8141 84.8645C20.8141 85.255 20.1893 85.0988 19.4083 84.3959C18.6274 83.693 16.3625 82.834 14.4101 82.5997C8.00617 81.7406 -2.22453 87.9884 0.430766 91.1122C0.899347 91.737 1.05554 92.4399 0.82125 92.6742C0.508862 92.9085 0.586959 94.0799 0.82125 95.1733C1.21174 96.6571 1.75841 97.1257 3.08606 97.0476C6.52233 96.7352 7.69378 97.1257 7.2252 98.2972C6.60043 100.015 8.08427 99.7029 9.02143 97.9848C9.49001 97.2038 10.9739 96.1105 12.3015 95.6419C15.5035 94.5485 15.3473 94.4704 15.3473 96.8133C15.3473 98.5315 15.113 98.6877 13.6292 98.2191C11.9891 97.7505 11.911 97.7505 13.1606 99.5467C14.4882 101.655 18.315 102.514 19.3302 100.874C19.8769 100.093 20.1893 100.093 20.9703 100.874C21.4388 101.343 22.2979 101.812 22.6884 101.812C23.157 101.812 23.0008 101.421 22.376 101.031C21.4388 100.406 21.595 100.25 23.0789 100.25C24.2503 100.25 24.7189 100.64 24.4846 101.265C23.8599 102.983 28.1552 101.89 30.6543 99.7029C32.2162 98.3753 33.622 97.9067 35.0277 98.0629C36.1992 98.2972 36.9801 98.141 36.7459 97.7505C36.5116 97.4381 36.7459 97.1257 37.1363 97.1257C37.6049 97.1257 37.9954 96.7352 37.9954 96.3447C37.9954 95.8762 37.2925 95.5638 36.3554 95.5638C33.7782 95.5638 35.1058 93.8456 37.8392 93.6114C39.5573 93.4552 40.3383 93.7675 40.3383 94.4704C40.3383 96.6571 45.0241 95.72 47.4451 93.1428C48.6947 91.8151 49.4757 90.4094 49.2414 90.0189C49.0071 89.6284 49.3976 89.316 50.0223 89.316C50.7252 89.316 51.2719 89.7065 51.2719 90.1751C51.2719 90.7218 52.0529 90.878 53.3024 90.5656C54.3958 90.2532 57.1292 90.6437 59.5502 91.4246C63.7674 92.7523 63.8455 92.6742 65.4074 91.1122C66.8132 89.7065 67.3599 89.6284 69.4685 90.4094C70.8742 90.878 72.1238 91.5027 72.3581 91.737C73.139 92.6742 76.6534 94.2361 79.3868 94.8609C82.4326 95.5638 87.4308 94.3923 88.9146 92.6742C89.5394 91.8932 89.4613 91.737 88.5241 92.0494C87.8994 92.3618 87.1184 92.1275 86.7279 91.5808C86.4155 91.0342 86.4936 90.7999 86.8841 91.0342C87.2746 91.2684 88.446 90.4094 89.4613 89.0817C91.2575 86.895 91.2575 86.8169 89.7737 87.676C87.6651 88.7693 86.9622 88.7693 87.587 87.7541C87.8213 87.2855 87.7432 86.9731 87.3527 86.9731C86.1812 86.9731 84.3069 89.5503 83.7602 91.8932C83.4478 93.0647 82.9012 93.8456 82.5107 93.6114C81.183 92.8304 81.6516 89.6284 83.2916 88.1446C84.1507 87.3636 84.8536 86.3483 84.8536 85.9578C84.8536 85.4893 83.7602 86.114 82.4326 87.4417L80.0116 89.7065L80.324 86.5826C80.6363 83.7711 80.8706 83.4587 82.9793 83.3806C86.6498 83.2245 89.0708 82.2873 88.1337 81.3501C87.6651 80.8815 86.5717 81.0377 84.9317 81.8187C82.4326 83.1464 81.7297 82.5997 83.5259 80.8034C84.3069 79.9444 84.2288 79.8663 83.3697 80.3349C82.5107 80.8034 82.3545 80.6473 82.8231 79.5539C83.2135 78.3824 83.1354 78.3043 82.1983 79.0853C81.3392 79.8663 81.0268 79.7101 80.7144 78.6167C80.4801 77.7577 80.324 78.1482 80.2459 79.5539ZM56.973 88.8474C57.2854 89.6284 57.0511 89.8627 56.2701 89.5503C55.0986 89.0817 54.7863 87.7541 55.8796 87.7541C56.2701 87.7541 56.7387 88.3008 56.973 88.8474ZM77.122 92.2056C78.5277 92.9085 79.3087 93.6114 78.762 93.8456C78.2153 94.0018 76.6534 93.3771 75.2477 92.518C72.2019 90.5656 73.4514 90.3313 77.122 92.2056ZM33.5439 94.2361C33.8563 94.0018 34.0906 94.3142 34.0906 94.939C34.0906 95.6419 33.5439 96.3447 32.9191 96.6571C32.2943 96.8914 31.8257 96.8133 31.8257 96.5009C32.06 94.8609 31.5915 94.7047 30.3419 95.7981C29.0143 97.0476 28.9362 96.9695 29.2485 94.3142L29.5609 91.5808L31.2791 93.1428C32.2943 94.0799 33.3096 94.5485 33.5439 94.2361Z" fill="#73081E"/>
<path d="M28.6238 79.7882C28.6238 80.1787 29.1705 80.9597 29.7952 81.5063C30.42 82.053 30.9667 82.1311 30.9667 81.6625C30.9667 81.2721 30.42 80.4911 29.7952 79.9444C29.1705 79.3977 28.6238 79.3196 28.6238 79.7882Z" fill="#73081E"/>
<path d="M139.912 79.9444C140.146 80.3349 140.771 80.7254 141.161 80.7254C141.63 80.7254 141.708 80.3349 141.474 79.9444C141.24 79.4759 140.615 79.1635 140.224 79.1635C139.756 79.1635 139.678 79.4759 139.912 79.9444Z" fill="#73081E"/>
<path d="M174.04 79.7101C172.635 79.9444 172.244 80.4911 172.556 81.5845C172.869 82.6778 172.556 83.0683 171.385 83.0683C169.745 83.0683 165.293 87.2855 165.293 88.8475C165.293 89.3942 164.434 90.2532 163.341 90.7218C162.091 91.3466 161.389 92.2056 161.467 93.3771C161.467 94.7828 161.623 94.8609 162.013 93.8457C162.326 93.1428 163.497 91.8152 164.747 90.878C165.918 89.9408 166.855 88.7694 166.855 88.2227C166.855 86.8951 169.979 84.1617 172.166 83.615C173.65 83.3026 173.884 83.4588 173.494 84.7083C173.103 85.8017 173.572 86.8951 174.977 88.3008C177.398 90.6437 178.414 90.1751 177.164 87.3636C176.618 86.2703 176.227 84.474 176.227 83.4588C176.227 82.1311 175.915 81.6626 175.134 81.9749C174.509 82.2092 173.806 82.053 173.494 81.5845C173.181 81.0378 173.884 80.7254 175.368 80.7254C176.696 80.7254 177.789 80.3349 177.789 79.9444C177.789 79.1635 177.242 79.0854 174.04 79.7101Z" fill="#73081E"/>
<path d="M47.9137 83.615C48.3042 84.6302 48.0699 84.7864 46.8985 84.396C45.727 83.9274 45.8051 84.1617 47.2889 85.4112C48.3042 86.2703 49.2414 86.8951 49.3976 86.817C49.8661 86.3484 48.6947 82.2873 48.0699 82.2873C47.6794 82.2873 47.6794 82.9121 47.9137 83.615Z" fill="#73081E"/>
<path d="M51.0376 85.4893C51.35 86.5045 51.6624 86.895 51.8967 86.2702C52.0529 85.7235 51.8186 84.8645 51.4281 84.474C50.8033 83.8492 50.7252 84.1616 51.0376 85.4893Z" fill="#73081E"/>
<path d="M53.3024 85.0207C52.5995 87.0512 52.7557 87.5198 53.6929 85.9578C54.1615 85.1769 54.3958 84.3178 54.1615 84.1616C54.0053 83.9273 53.6148 84.3178 53.3024 85.0207Z" fill="#73081E"/>
<path d="M16.1283 87.7541C15.6597 88.6132 15.5035 89.316 15.6597 89.316C15.894 89.316 16.4406 88.6132 16.9092 87.7541C17.3778 86.895 17.534 86.1922 17.3778 86.1922C17.1435 86.1922 16.5968 86.895 16.1283 87.7541Z" fill="#73081E"/>
<path d="M45.4146 89.3161C45.6489 89.7066 46.0394 90.097 46.2737 90.097C46.4299 90.097 46.5861 89.7066 46.5861 89.3161C46.5861 88.8475 46.1956 88.5351 45.727 88.5351C45.3365 88.5351 45.1803 88.8475 45.4146 89.3161Z" fill="#73081E"/>
<path d="M23.157 91.7371C23.0789 93.4552 23.0008 93.4552 22.1417 92.2838C21.2046 91.1123 20.8922 91.2685 18.9398 93.6895C16.8311 96.3448 16.8311 97.9067 18.8617 97.9067C19.4083 97.9067 20.1112 96.9696 20.3455 95.8762C20.736 94.4705 21.2827 94.0019 22.0636 94.3143C22.7665 94.5486 23.7818 94.7829 24.3284 94.7829C24.9532 94.7829 25.6561 95.4857 25.8904 96.4229C26.2028 97.282 26.5933 97.8286 26.7494 97.6724C26.9837 97.5163 26.2028 95.6419 25.1094 93.6114C23.5475 90.5656 23.157 90.2532 23.157 91.7371Z" fill="#73081E"/>
<path d="M155.688 92.4399C155.219 94.1581 152.876 94.5485 151.392 93.0647C150.689 92.3618 150.455 92.4399 150.455 93.4552C150.455 94.3924 151.08 94.7828 152.642 94.7828C155.063 94.7828 158.499 92.6742 157.874 91.5809C157.093 90.4094 156.156 90.7999 155.688 92.4399Z" fill="#73081E"/>
<path d="M109.688 92.9866C109.142 95.0171 110.313 96.1886 111.641 94.8609C112.266 94.2361 112.266 94.0018 111.641 94.0018C111.172 94.0018 110.626 93.3771 110.469 92.5961C110.235 91.5027 110.079 91.5808 109.688 92.9866Z" fill="#73081E"/>
<path d="M114.609 92.2056C114.53 92.7523 113.984 92.9865 113.359 92.7523C112.734 92.4399 112.188 92.6742 112.188 93.1427C112.188 93.6113 112.5 94.0018 112.89 94.0018C113.281 94.0018 113.828 94.5485 114.062 95.2514C114.452 96.3447 114.374 96.4228 113.437 95.6418C112.734 95.0171 112.188 95.0171 111.875 95.4856C111.172 96.579 112.266 97.0476 117.811 97.8286C120.622 98.219 123.59 99 124.371 99.4686C126.557 100.874 132.727 108.528 133.898 111.261C135.226 114.463 133.742 117.509 130.384 118.602C127.729 119.461 124.683 121.882 124.683 123.132C124.683 123.601 125.542 123.132 126.635 122.117C129.135 119.774 129.994 120.633 128.197 123.444C126.792 125.631 126.792 125.631 128.354 124.225C129.213 123.522 130.306 122.898 130.775 122.898C131.243 122.898 131.477 122.195 131.321 121.258C131.087 120.164 131.712 118.993 133.274 117.665C134.836 116.416 135.617 115.01 135.617 113.604C135.617 111.339 132.415 105.951 128.9 102.28C127.729 101.031 126.635 99.3905 126.635 98.6095C126.557 97.9067 125.933 96.7352 125.23 95.9542C123.98 94.7828 123.902 94.7828 123.902 96.2666C123.902 97.4381 123.512 97.7505 122.574 97.4381C121.793 97.2038 120.622 96.8133 119.997 96.579C119.138 96.3447 119.294 95.9542 120.778 95.0952C122.653 94.0018 122.653 93.9237 121.012 94.2361C119.997 94.4704 119.216 94.2361 119.216 93.7675C119.216 93.2208 118.826 93.4551 118.357 94.2361C117.732 95.3295 117.342 95.4075 116.561 94.5485C116.014 94.0018 115.39 93.0646 115.077 92.4399C114.843 91.737 114.609 91.6589 114.609 92.2056ZM126.245 98.6876C126.245 99.0781 126.089 99.4686 125.933 99.4686C125.698 99.4686 125.308 99.0781 125.074 98.6876C124.839 98.219 124.995 97.9067 125.386 97.9067C125.854 97.9067 126.245 98.219 126.245 98.6876Z" fill="#73081E"/>
<path d="M159.436 96.3448C157.952 96.9695 157.952 97.0476 159.67 97.0476C160.608 97.1257 161.389 96.7352 161.389 96.3448C161.389 95.8762 161.311 95.5638 161.232 95.6419C161.076 95.6419 160.295 95.9543 159.436 96.3448Z" fill="#73081E"/>
<path d="M152.72 97.6724C151.705 99 151.705 99 153.188 97.9067C154.047 97.2819 154.907 96.6571 155.063 96.579C155.219 96.4228 155.063 96.3447 154.594 96.3447C154.126 96.3447 153.267 96.9695 152.72 97.6724Z" fill="#73081E"/>
<path d="M144.207 99.0782C144.207 99.5467 144.598 100.328 145.144 100.874C145.925 101.655 145.691 102.202 144.285 103.608C142.567 105.248 142.489 105.248 142.958 103.764C143.426 102.202 143.426 102.202 142.255 103.686C140.615 105.873 140.771 106.263 143.348 105.873C144.832 105.716 145.691 105.951 146.003 106.732C146.472 108.059 144.52 111.183 143.192 111.183C142.645 111.183 142.177 111.886 142.177 112.745C142.177 113.604 142.489 114.307 142.802 114.307C143.114 114.307 143.739 113.604 144.207 112.745C144.676 111.886 145.613 111.183 146.316 111.183C147.487 111.183 147.487 111.261 146.316 112.589C145.613 113.37 145.066 114.619 145.144 115.479C145.144 116.338 145.066 117.587 144.91 118.212C144.676 118.993 145.144 119.305 146.16 119.227C147.019 119.149 148.034 119.618 148.346 120.242C148.659 120.867 149.518 121.336 150.065 121.336C150.689 121.336 151.236 121.648 151.236 122.039C151.236 122.429 152.017 122.898 153.032 123.054C154.282 123.21 154.672 123.757 154.594 125.084C154.438 126.334 154.672 126.724 155.375 126.256C157.796 124.772 161.389 126.334 161.389 128.989C161.389 129.848 161.623 129.926 162.482 129.224C163.263 128.521 164.512 129.38 168.339 133.207C170.916 135.862 173.103 138.439 173.103 138.908C173.103 139.454 172.4 140.47 171.541 141.251C170.682 142.031 170.135 142.812 170.37 143.047C170.604 143.281 171.463 142.812 172.4 141.953C173.962 140.548 173.962 140.548 173.494 142.656C173.103 144.062 173.259 144.765 173.884 144.765C174.587 144.765 174.743 143.906 174.431 142.031C173.884 138.595 174.899 138.439 176.305 141.719C177.242 143.984 177.164 144.296 175.524 145.624C173.806 147.03 174.196 147.498 176.774 147.186C177.398 147.108 177.555 147.576 177.242 148.357C176.852 149.373 177.086 149.529 178.414 149.138C180.444 148.435 183.256 149.841 183.256 151.481C183.256 152.184 182.865 152.418 182.319 152.106C180.913 151.247 182.553 153.59 184.193 154.761C186.067 156.167 186.145 159.838 184.271 159.291C183.49 159.057 181.616 159.135 180.132 159.525L177.398 160.15L179.976 160.697C181.303 161.009 182.475 161.556 182.475 161.946C182.475 162.259 183.178 162.727 184.037 162.961C184.896 163.196 185.911 164.211 186.302 165.226C186.926 166.866 187.395 167.023 190.206 166.788C194.189 166.398 194.346 165.382 190.519 164.68C186.926 164.055 186.38 163.274 186.38 159.135C186.38 155.777 184.505 149.373 182.631 146.483C182.006 145.546 180.6 144.296 179.429 143.75C178.336 143.281 177.32 142.11 177.164 141.251C176.852 139.22 164.356 127.271 159.827 124.694C155.453 122.117 152.798 119.774 152.798 118.524C152.798 117.978 151.939 116.728 150.924 115.713C149.908 114.698 148.581 112.355 148.112 110.402C147.565 108.45 146.628 106.263 145.925 105.482C144.52 103.92 144.363 104.076 148.659 101.265C149.986 100.328 149.986 100.328 148.581 100.796C147.331 101.187 147.175 101.031 147.565 99.8591C148.112 98.6877 147.956 98.6096 146.863 99.4686C145.847 100.406 145.535 100.328 144.91 99.3905C144.52 98.7658 144.207 98.6877 144.207 99.0782ZM151.236 117.353C151.236 118.681 150.065 118.837 148.503 117.743C147.097 116.728 147.097 116.65 149.127 116.65C150.299 116.65 151.236 116.962 151.236 117.353ZM181.147 146.717C180.913 148.045 178.804 148.045 178.258 146.717C177.945 145.702 178.179 145.468 179.585 145.702C180.522 145.858 181.225 146.249 181.147 146.717ZM185.599 160.853C185.599 161.009 185.052 161.165 184.427 161.165C183.802 161.165 183.256 160.853 183.256 160.384C183.256 159.994 183.802 159.838 184.427 160.072C185.052 160.384 185.599 160.697 185.599 160.853Z" fill="#73081E"/>
<path d="M32.3724 101.733C30.9667 102.983 29.0924 104.154 28.2333 104.389C26.9837 104.701 27.0618 104.779 28.7019 104.857C30.0295 104.935 31.5134 103.998 33.3096 102.202C36.5116 98.922 35.8868 98.6096 32.3724 101.733Z" fill="#73081E"/>
<path d="M133.664 120.555C133.43 120.945 133.664 121.101 134.289 120.867C134.914 120.633 138.35 123.444 142.88 127.896C147.019 131.957 151.47 135.862 152.798 136.565C154.048 137.189 155.141 138.049 155.141 138.361C155.141 138.751 156.703 140.782 158.577 142.969C160.451 145.233 162.17 147.889 162.482 148.982C162.716 150.075 163.966 151.481 165.215 152.184C168.652 153.902 170.916 157.104 169.979 158.822C168.886 160.775 168.964 161.712 170.135 160.54C171.385 159.291 173.337 159.369 172.947 160.54C172.635 161.478 172.322 161.634 169.511 161.868C168.886 161.868 168.495 162.259 168.73 162.649C168.964 163.04 167.714 164.289 165.84 165.539C163.185 167.335 161.701 167.803 158.03 167.803C153.267 167.803 151.236 169.131 151.236 172.177C151.236 172.88 150.221 173.895 148.893 174.442C147.644 174.988 146.55 175.691 146.55 176.082C146.55 178.19 151.236 174.598 152.564 171.552C153.735 168.584 155.531 167.491 156.937 168.897C157.64 169.678 157.562 170.146 156.39 171.005C155.531 171.552 155.063 172.333 155.375 172.645C155.688 172.88 156.625 172.489 157.484 171.708C159.436 169.912 160.53 170.771 158.811 172.724C158.03 173.505 157.484 174.598 157.484 175.145C157.484 175.691 158.343 175.066 159.436 173.895C160.842 172.255 161.545 171.943 162.013 172.645C162.482 173.426 163.107 173.426 164.747 172.645C167.558 171.396 167.402 170.927 164.044 170.068L161.154 169.365L164.512 167.179C168.183 164.836 169.355 164.523 168.73 166.163C168.183 167.491 169.433 168.35 171.073 167.725C172.01 167.335 172.088 166.944 171.463 165.695C170.604 164.055 171.854 161.556 173.181 162.415C173.962 162.883 175.446 159.525 175.446 157.495C175.446 156.636 174.899 156.401 173.416 156.714C171.932 156.948 171.541 156.792 171.854 155.933C172.088 155.308 172.322 154.683 172.322 154.605C172.322 154.449 173.181 154.527 174.197 154.683C176.852 155.23 177.242 153.902 175.056 151.794C173.181 149.997 171.073 149.685 166.153 150.388C165.059 150.544 164.122 150.154 163.888 149.529C163.653 148.826 163.966 148.67 165.137 148.982C165.996 149.294 166.934 149.138 167.246 148.67C167.48 148.279 167.168 147.889 166.387 147.889C165.45 147.889 165.215 147.42 165.528 146.327C165.996 144.531 164.278 140.548 163.497 141.407C163.185 141.641 162.951 142.578 162.951 143.359C162.951 144.14 162.56 144.765 162.091 144.765C161.701 144.765 161.467 144.452 161.779 143.984C162.013 143.593 161.779 142.578 161.232 141.719C160.53 140.548 160.53 139.923 161.389 138.986C161.935 138.283 162.248 137.502 162.013 137.268C161.779 137.111 160.998 137.814 160.295 138.908C159.202 140.548 159.124 141.172 159.905 142.11C160.373 142.734 160.451 143.203 160.061 143.203C159.592 143.203 158.343 141.797 157.249 140.157C156.078 138.439 153.657 136.018 151.705 134.69C149.83 133.363 147.097 130.864 145.613 129.224C143.114 126.256 135.46 119.774 134.601 119.774C134.367 119.774 133.898 120.086 133.664 120.555ZM171.541 154.996C171.541 155.386 171.229 155.698 170.76 155.698C170.37 155.698 169.979 155.152 169.979 154.449C169.979 153.824 170.37 153.512 170.76 153.746C171.229 153.98 171.541 154.527 171.541 154.996Z" fill="#73081E"/>
<path d="M180.444 156.401C180.679 156.792 181.694 157.26 182.631 157.495C184.349 157.963 184.349 157.885 182.943 156.87C181.225 155.542 179.819 155.308 180.444 156.401Z" fill="#73081E"/>
<path d="M189.035 162.727C187.863 163.196 188.098 163.352 190.284 163.664C191.768 163.899 193.643 164.289 194.424 164.68C195.439 165.07 195.673 164.992 195.283 163.977C194.346 161.478 198.641 162.571 201.999 165.695C205.904 169.444 206.06 171.162 202.624 170.849C200.125 170.615 200.047 170.615 202.311 171.162C203.561 171.474 204.889 172.411 205.201 173.27C205.748 174.754 205.826 174.754 205.826 173.036C205.904 172.099 206.216 171.318 206.685 171.318C208.169 171.318 204.03 165.695 201.218 163.821C198.953 162.259 197.391 161.868 194.424 162.024C192.315 162.102 189.894 162.415 189.035 162.727Z" fill="#73081E"/>
<path d="M180.444 164.211C180.679 164.602 180.132 165.148 179.117 165.461C177.555 166.007 177.711 166.085 180.054 166.398C183.49 166.866 184.661 165.617 182.084 164.445C180.913 163.899 180.21 163.821 180.444 164.211Z" fill="#73081E"/>
<path d="M175.446 167.413C176.071 167.803 177.164 168.194 177.789 168.194C178.804 168.194 178.804 168.116 177.789 167.413C177.164 167.023 176.071 166.632 175.446 166.632C174.431 166.632 174.431 166.71 175.446 167.413Z" fill="#73081E"/>
<path d="M194.97 167.413C196.532 168.428 197.547 168.428 196.923 167.413C196.688 166.944 195.829 166.632 195.126 166.632C193.955 166.632 193.955 166.788 194.97 167.413Z" fill="#73081E"/>
<path d="M183.881 169.522C184.427 169.756 185.13 169.678 185.364 169.444C185.677 169.209 185.208 168.975 184.349 169.053C183.49 169.053 183.256 169.287 183.881 169.522Z" fill="#73081E"/>
<path d="M190.284 169.756C189.425 170.303 189.816 170.381 191.534 170.068C194.189 169.522 195.986 171.005 194.111 172.177C193.33 172.646 193.486 172.88 194.814 172.88C196.923 172.88 197.001 172.021 195.127 170.303C193.486 168.819 192.003 168.663 190.284 169.756Z" fill="#73081E"/>
<path d="M186.458 171.005C186.458 171.865 186.692 172.099 186.926 171.474C187.161 170.927 187.083 170.224 186.848 169.99C186.614 169.678 186.38 170.146 186.458 171.005Z" fill="#73081E"/>
<path d="M172.322 172.88C171.697 173.27 170.526 173.426 169.823 173.192C167.793 172.567 165.293 173.583 165.293 174.91C165.293 175.535 165.684 175.847 166.074 175.613C166.543 175.301 168.73 174.988 170.995 174.754C176.852 174.286 179.429 173.661 178.882 172.802C178.336 171.865 173.806 171.943 172.322 172.88Z" fill="#73081E"/>
<path d="M207.622 174.442C207.622 175.535 207.778 175.926 208.013 175.379C208.169 174.91 208.169 173.973 208.013 173.426C207.778 172.958 207.622 173.348 207.622 174.442Z" fill="#73081E"/>
<path d="M188.176 174.52C187.707 174.988 187.473 175.926 187.707 176.472C188.254 177.956 191.612 177.8 192.159 176.316C192.549 175.223 192.471 175.145 191.534 175.926C190.987 176.394 189.894 176.55 189.113 176.316C188.098 175.926 188.02 175.613 188.801 175.145C189.425 174.832 189.66 174.364 189.425 174.129C189.191 173.895 188.644 174.051 188.176 174.52Z" fill="#73081E"/>
<path d="M281.646 1.94341C280.006 2.64628 278.757 3.97393 277.976 5.77016C276.96 8.26926 276.57 8.50356 274.539 8.11307C272.978 7.80068 271.884 8.03497 271.025 8.97214C268.526 11.4712 269.697 13.8141 273.602 14.2046C275.867 14.3608 276.336 14.7513 276.414 16.3913C276.492 17.4847 276.804 19.0466 277.195 19.8276C277.585 20.921 277.507 21.1553 276.804 20.7648C276.18 20.3743 275.008 20.921 273.758 22.0924C272.587 23.1858 269.307 25.2163 266.417 26.544C261.497 28.965 254.078 34.9003 254.078 36.3842C254.078 36.7747 254.625 38.649 255.171 40.6014C256.109 43.4129 256.343 43.7253 256.499 42.1633C256.577 41.07 256.577 39.0395 256.499 37.6337C256.265 34.1975 260.013 30.605 268.292 26.4659C271.65 24.7477 274.618 22.8734 274.93 22.2486C275.555 20.5305 276.336 20.7648 278.835 23.4201C280.006 24.6696 281.412 25.763 281.959 25.763C282.505 25.763 283.443 26.7001 284.067 27.8716C284.692 29.1212 286.488 31.3079 288.05 32.7917C292.814 37.3213 294.22 39.8985 294.845 44.8967C295.313 48.9578 302.342 71.4497 302.967 70.8249C303.201 70.5906 299.14 54.9713 296.172 44.5063C295.079 40.5233 293.751 38.2585 290.393 34.3537L286.02 29.2773L288.206 28.8088C290.315 28.2621 290.393 28.2621 288.441 28.1059C287.347 28.0278 286.176 27.9497 285.707 27.9497C285.317 28.0278 283.989 26.7001 282.818 25.1382L280.787 22.1705L285.004 18.8905C287.347 17.0942 289.222 16.0009 289.222 16.3913C289.222 17.8752 291.174 17.1723 291.955 15.4542C292.424 14.4389 293.439 13.5799 294.22 13.4237C295.391 13.1894 295.626 13.4237 295.235 14.8294C295.001 15.8447 295.235 16.6256 295.938 16.938C298.125 17.7971 296.563 23.0296 293.205 26.0754C292.267 26.9344 291.565 27.9497 291.565 28.3402C291.565 29.9802 295.313 25.5287 297.266 21.5457C298.359 19.2809 299.843 16.938 300.546 16.3913C302.264 14.9856 302.03 10.6903 299.999 8.11307C295.001 1.63102 287.816 -0.789986 281.646 1.94341Z" fill="#73081E"/>
<path d="M388.405 13.4237C388.405 13.9704 387.702 15.298 386.843 16.3914C385.984 17.4847 385.281 18.8905 385.281 19.5933C385.281 20.7648 384.969 20.7648 382.001 19.7495C380.048 19.0467 378.487 18.9686 378.096 19.3591C377.627 19.8276 377.706 20.2962 378.252 20.6867C379.189 21.2334 377.94 23.4201 376.612 23.4201C376.222 23.4201 374.347 24.5916 372.395 26.0754C370.521 27.5592 368.256 28.965 367.475 29.1993C366.225 29.5898 362.789 35.6813 363.492 36.228C363.648 36.3061 365.21 36.9309 366.928 37.5556C369.583 38.5709 370.833 38.649 374.738 37.7899C377.315 37.3214 379.58 37.009 379.814 37.1652C380.283 37.3214 382.782 42.8662 384.188 46.4587C384.656 47.5521 384.89 46.693 385.203 43.3348C385.515 40.7576 385.984 38.1804 386.296 37.6337C386.999 36.5404 389.967 36.3061 389.967 37.3995C389.967 37.7118 391.138 39.2738 392.622 40.8357L395.199 43.5691L393.325 49.3483C392.232 52.4722 391.294 55.1275 391.216 55.2056C391.138 55.2837 390.045 54.8151 388.795 54.1903C386.765 53.0969 386.218 53.175 382.86 54.6589C380.829 55.5179 378.955 56.2208 378.643 56.2208C378.408 56.2208 377.549 55.0494 376.69 53.6436C375.831 52.316 375.128 51.6131 375.128 52.1598C375.128 53.956 377.627 57.0018 379.111 57.0018C379.97 57.0018 381.923 56.4551 383.485 55.8303C387.702 54.0341 390.748 55.4399 390.748 59.0323C390.748 62.4686 389.732 62.8591 388.171 60.1257C387.311 58.7199 387.077 57.7047 387.624 57.3923C389.03 56.5332 387.78 55.596 385.671 56.0646C384.188 56.2989 383.797 56.7675 384.109 57.8609C384.812 59.8914 382.469 64.2648 378.955 67.7011C377.315 69.3411 375.909 71.1373 375.909 71.6059C375.909 72.1526 375.441 72.6212 374.972 72.6212C374.425 72.6993 371.848 74.6517 369.271 77.0727C366.694 79.4937 365.444 80.8995 366.538 80.1966C373.254 75.667 375.128 74.8079 376.3 75.7451C377.862 76.9946 378.721 74.9641 377.549 72.7774C376.925 71.5278 377.315 70.825 379.814 68.3259C381.454 66.6858 383.25 64.3429 383.797 63.1715C384.266 61.9219 384.969 60.9066 385.281 60.9066C385.671 60.9066 386.531 62.4686 387.39 64.421C388.171 66.3734 389.186 67.9354 389.576 67.9354C390.045 67.9354 391.06 70.5907 391.919 73.7926L393.325 79.6499L391.06 81.368C389.811 82.3833 387.546 84.3357 386.062 85.7415L383.329 88.3187L387.39 85.5072C389.654 83.9452 391.685 82.3052 391.997 81.9147C392.232 81.5242 392.778 81.2119 393.169 81.2119C394.731 81.2119 392.934 84.7262 389.732 88.0063C388.014 89.8806 386.765 91.5206 386.999 91.833C388.092 92.8483 392.466 89.5682 393.559 86.9129C394.887 83.8671 394.653 81.4461 392.232 71.5278L390.67 65.4363L392.7 62.3124C395.199 58.4856 399.338 56.5332 401.916 57.8609C407.382 60.8285 412.615 66.7639 412.615 70.1221C412.615 72.0745 414.021 73.0898 415.114 71.9964C417.457 69.6535 410.662 59.9695 404.493 56.6113C402.931 55.7522 401.681 54.6589 401.681 54.1122C401.681 53.5655 401.369 53.0969 400.9 53.0969C400.51 53.0969 400.119 52.5503 400.119 51.9255C400.119 51.3007 398.948 49.895 397.464 48.7235C394.809 46.6149 394.809 46.4587 395.902 44.272C397.152 41.9291 398.011 41.851 404.415 43.4129C405.664 43.7253 405.742 43.6472 404.805 43.1005C404.18 42.632 402.15 42.0853 400.432 41.7729C397.776 41.3824 397.23 40.9919 397.542 39.8205C398.011 38.0242 395.746 29.0431 394.184 26.7002C393.091 24.982 393.091 24.9039 396.605 23.342C400.432 21.6239 400.432 21.6239 399.338 19.5153C397.776 16.5476 388.405 11.3932 388.405 13.4237ZM394.653 17.8752C396.136 19.1248 397.23 20.2962 396.995 20.5305C396.215 21.3115 392.934 22.0144 393.325 21.3115C393.559 20.921 393.481 20.14 393.091 19.5153C392.544 18.6562 391.997 18.5781 390.435 19.3591C388.483 20.2181 387.702 19.6714 389.03 18.4219C389.342 18.1095 389.654 17.4847 389.654 17.0942C389.889 15.7666 389.967 15.6104 390.982 15.6104C391.529 15.6104 393.169 16.6257 394.653 17.8752ZM396.371 49.7388C398.792 52.4722 398.714 54.1903 395.98 56.0646L393.481 57.7828L393.247 55.7522C392.856 53.0969 393.715 48.4111 394.574 48.4111C394.887 48.4111 395.746 49.0359 396.371 49.7388Z" fill="#73081E"/>
<path d="M370.521 41.07C370.521 41.9291 370.755 42.1634 370.989 41.5386C371.224 40.9919 371.145 40.2891 370.911 40.0548C370.677 39.7424 370.443 40.211 370.521 41.07Z" fill="#73081E"/>
<path d="M391.294 42.9443C391.06 43.8034 391.216 44.5063 391.607 44.5063C391.997 44.5063 392.31 43.8034 392.31 42.9443C392.31 42.0853 392.153 41.3824 391.997 41.3824C391.841 41.3824 391.529 42.0853 391.294 42.9443Z" fill="#73081E"/>
<path d="M373.566 42.9444C373.566 43.3349 374.269 43.7253 375.128 43.7253C375.987 43.7253 376.69 43.3349 376.69 42.9444C376.69 42.4758 375.987 42.1634 375.128 42.1634C374.269 42.1634 373.566 42.4758 373.566 42.9444Z" fill="#73081E"/>
<path d="M260.794 45.1311C260.482 46.5368 260.404 49.114 260.716 50.9883C261.341 54.737 263.294 59.8133 263.84 59.1885C264.074 58.9542 263.84 57.7828 263.372 56.5332C262.903 55.2837 262.278 51.6131 261.966 48.4111C261.497 43.3348 261.341 42.8663 260.794 45.1311Z" fill="#73081E"/>
<path d="M411.443 47.7863C413.864 49.973 417.457 53.956 419.409 56.5332C423.705 62.1562 425.188 63.7962 423.158 60.5161C420.425 56.0646 413.63 47.9425 410.819 45.8339C406.367 42.4757 406.68 43.4129 411.443 47.7863Z" fill="#73081E"/>
<path d="M252.829 49.3483C250.876 53.5655 250.564 55.2056 250.564 60.9066C250.642 64.5772 251.032 68.2477 251.501 69.1849C252.907 71.684 268.136 75.5889 268.136 73.4021C268.136 72.6212 266.964 72.3088 261.497 71.4497C253.61 70.2002 252.75 69.7316 251.813 66.061C250.486 60.6723 250.798 57.0799 253.297 50.8321C254.547 47.6301 255.484 44.8968 255.328 44.7406C255.171 44.5844 254.078 46.693 252.829 49.3483Z" fill="#73081E"/>
<path d="M372.785 49.9731C372.785 50.3635 373.332 50.754 373.957 50.754C374.582 50.754 375.128 50.3635 375.128 49.9731C375.128 49.5045 374.582 49.1921 373.957 49.1921C373.332 49.1921 372.785 49.5045 372.785 49.9731Z" fill="#73081E"/>
<path d="M256.811 57.0018C256.187 57.939 258.53 62.4686 259.623 62.4686C260.17 62.4686 260.248 61.9219 259.935 61.0629C259.623 60.36 259.154 58.9543 258.998 57.939C258.53 56.1428 257.592 55.6742 256.811 57.0018Z" fill="#73081E"/>
<path d="M285.317 63.0934C285.317 64.0305 284.77 65.6706 284.067 66.6858C283.443 67.7011 282.818 69.5754 282.74 70.825C282.583 72.5431 282.037 73.1679 279.85 73.9488C278.366 74.4955 277.741 74.886 278.444 74.886C279.225 74.9641 281.022 74.4174 282.427 73.7145C284.692 72.6212 285.239 71.8402 286.098 68.3258C286.801 65.3582 286.879 63.8743 286.254 62.781C285.395 61.3752 285.395 61.3752 285.317 63.0934Z" fill="#73081E"/>
<path d="M287.113 62.6248C289.144 67.7011 289.925 70.2783 290.315 72.6993C290.627 74.4174 292.58 77.8537 295.469 81.6805C298.047 85.0386 300.155 88.3968 300.155 89.0216C300.155 90.4273 298.593 93.0045 298.593 91.5988C298.593 91.1302 297.422 90.2711 295.938 89.7244C294.22 89.0997 293.048 88.0844 292.736 86.9129C292.267 84.8043 287.425 79.1814 285.083 77.9318C284.223 77.4632 285.083 78.7128 287.113 80.5871C289.065 82.5395 290.862 85.0386 291.096 86.2101C291.408 87.3034 291.721 89.0997 291.955 90.193C292.189 91.3645 292.736 91.9112 293.439 91.6769C294.064 91.4426 294.767 91.5988 295.079 92.0674C295.313 92.5359 296.25 92.9264 297.109 92.9264C298.203 92.9264 298.593 93.4731 298.593 95.1912C298.593 97.3779 300.468 99.877 301.483 98.9399C301.717 98.6275 301.327 98.237 300.624 97.9246C299.14 97.3779 299.062 95.4255 300.311 91.2083C301.171 88.3187 301.092 88.0063 298.047 83.711L294.845 79.1813H297.89C300.858 79.1813 300.936 79.2594 302.498 83.3205C304.216 88.0063 308.59 96.8313 309.136 96.8313C309.371 96.8313 308.668 94.9569 307.574 92.6921C306.559 90.5054 304.763 86.3663 303.748 83.6329C301.795 78.6347 301.795 78.5566 303.279 77.5413C305.31 76.0575 305.31 74.6517 303.357 75.7451C301.092 76.9165 293.517 76.7603 292.424 75.5108C291.955 74.886 291.252 72.6212 290.784 70.4345C290.081 66.4515 288.05 61.6876 287.191 61.6876C286.879 61.6876 286.879 62.1562 287.113 62.6248Z" fill="#73081E"/>
<path d="M270.557 66.3734C274.461 70.2002 276.726 71.2935 276.726 69.263C276.726 67.9354 269.776 62.4686 268.057 62.4686C266.964 62.4686 267.589 63.4838 270.557 66.3734Z" fill="#73081E"/>
<path d="M247.674 71.9964C242.52 78.8689 239.63 86.991 235.491 105.5C232.992 116.512 230.259 133.381 230.883 134.005C231.508 134.63 236.116 114.403 238.146 101.908C240.724 86.0539 242.988 79.8061 249.08 71.2154C251.11 68.482 249.783 69.1849 247.674 71.9964Z" fill="#73081E"/>
<path d="M303.357 73.0898C303.357 73.9489 303.592 74.1832 303.826 73.5584C304.06 73.0117 303.982 72.3088 303.748 72.0746C303.513 71.7622 303.279 72.2307 303.357 73.0898Z" fill="#73081E"/>
<path d="M411.912 79.6499C411.756 89.5683 410.897 93.6293 408.632 95.4255C402.15 100.424 392.856 106.281 391.841 105.891C390.592 105.422 386.062 98.5494 386.062 97.1437C386.062 96.597 385.75 95.2693 385.281 94.176C384.656 92.4578 384.344 92.3016 382.157 92.9264C380.127 93.5512 379.736 93.4731 380.127 92.5359C381.845 88.3187 381.845 88.4749 379.814 90.0368C376.222 92.614 375.909 92.4578 370.833 87.4596L365.835 82.5395L358.572 89.2559C354.589 93.0045 351.075 96.0503 350.684 96.0503C350.372 96.0503 348.653 96.9875 346.935 98.0808C344.905 99.3304 343.89 100.424 344.202 101.205C344.436 101.829 344.202 102.298 343.733 102.298C343.187 102.298 338.345 102.845 332.956 103.47L323.038 104.719L317.259 101.908C309.605 98.237 308.043 98.4713 313.822 102.298C316.399 104.016 318.196 105.422 317.727 105.422C314.525 105.5 272.275 112.138 267.979 113.31C265.168 114.013 264.309 115.028 265.636 115.887C266.027 116.121 271.884 115.418 278.757 114.325C285.551 113.232 298.281 111.357 307.028 110.108L322.803 107.765L333.581 113.154C350.528 121.666 368.881 129.632 371.536 129.632C373.332 129.632 373.176 132.678 370.755 145.095C369.505 151.812 369.037 155.873 369.505 156.341C370.755 157.591 371.224 155.951 372.942 145.798C374.504 136.036 375.285 119.011 374.035 120.26C373.645 120.651 373.332 122.525 373.254 124.478C373.254 126.43 373.176 128.07 373.098 128.07C371.614 128.148 327.802 107.921 328.348 107.374C328.583 107.218 331.863 106.671 335.689 106.203C346.545 104.953 347.013 104.797 347.013 102.61C347.013 101.595 346.701 100.736 346.232 100.736C345.842 100.736 345.452 100.346 345.452 99.9551C345.452 99.4866 347.013 98.7837 348.966 98.237C350.918 97.6903 352.48 96.9094 352.48 96.4408C352.48 95.6598 364.195 85.0386 365.679 84.492C365.991 84.4138 367.397 85.5072 368.803 86.913L371.302 89.5683L363.414 94.0979C359.118 96.597 355.682 98.7056 355.76 98.8618C355.917 98.9399 358.884 97.6122 362.32 95.8941C367.787 93.2388 368.959 92.9264 370.364 93.7074C371.458 94.2541 374.582 94.4884 378.33 94.3322L384.578 94.0979L385.203 96.4408L385.75 98.7837L381.064 99.1742C378.33 99.4085 375.441 100.189 374.347 100.892C373.332 101.673 371.536 102.298 370.443 102.298C368.881 102.298 368.724 102.454 369.662 103.079C371.692 104.407 374.113 103.938 376.534 101.908C378.408 100.346 379.658 99.9551 382.704 100.033C386.296 100.189 386.609 100.346 389.42 104.407C391.06 106.671 392.7 108.546 393.169 108.546C393.559 108.546 396.058 106.828 398.792 104.797L403.634 101.049L409.335 101.673C415.114 102.298 420.425 101.127 420.425 99.3304C420.425 98.9399 421.83 98.3932 423.47 98.0808C425.657 97.7684 428.156 96.2846 432.139 92.9264C438.075 88.0063 439.168 87.4596 439.168 89.5683C439.168 90.2711 439.402 90.5835 439.715 90.3492C439.949 90.0368 439.558 87.4596 438.777 84.57L437.294 79.2595L436.669 82.5395C435.654 87.2253 426.594 96.8313 423.08 96.8313C421.752 96.8313 419.878 97.5341 418.863 98.3932C417.457 99.5647 415.895 99.9551 412.303 99.9551C409.647 99.9551 406.68 100.189 405.586 100.502C404.102 100.814 404.571 100.268 407.461 98.0027C409.491 96.3627 411.678 93.8636 412.303 92.4578C413.474 89.6463 413.63 81.3681 412.693 75.7451C412.146 72.6993 411.99 73.3241 411.912 79.6499ZM375.441 92.5359C377.237 93.8636 376.3 94.0198 372.004 93.2388C370.286 92.8483 369.818 92.5359 370.599 92.0674C372.083 91.0521 373.723 91.2864 375.441 92.5359Z" fill="#73081E"/>
<path d="M430.733 76.2917C432.53 80.5089 433.467 81.7585 434.17 80.9775C434.638 80.587 430.031 72.6211 429.406 72.6211C429.25 72.6211 429.796 74.2612 430.733 76.2917Z" fill="#73081E"/>
<path d="M271.025 75.0422C272.587 76.9946 276.57 78.947 277.117 78.0879C277.429 77.6194 276.258 76.7603 274.618 76.0574C272.978 75.3546 271.338 74.5736 270.869 74.3393C270.478 74.105 270.478 74.4174 271.025 75.0422Z" fill="#73081E"/>
<path d="M278.991 79.4156C279.928 81.2119 281.256 82.3833 281.881 81.8366C282.037 81.6023 281.256 80.6652 280.162 79.5718C278.21 77.7756 278.132 77.7756 278.991 79.4156Z" fill="#73081E"/>
<path d="M415.895 80.1185C416.207 81.9147 419.644 82.3833 425.891 81.5242L430.187 80.8994L424.329 80.4308C421.127 80.1185 417.847 79.6499 416.988 79.2594C415.895 78.7908 415.661 78.947 415.895 80.1185Z" fill="#73081E"/>
<path d="M276.414 81.7586C276.18 82.5395 275.633 84.8824 275.164 86.9911C274.696 89.0997 273.602 91.6769 272.821 92.7702C270.947 95.035 270.791 97.6122 272.431 97.6122C273.212 97.6122 273.602 96.8313 273.602 95.2693C273.602 93.9417 274.071 92.0674 274.696 91.1302C275.32 90.193 276.18 87.4596 276.57 85.1167C277.351 80.8995 277.273 79.0252 276.414 81.7586Z" fill="#73081E"/>
<path d="M283.364 83.5547C283.599 83.9452 284.302 84.1014 284.926 83.789C286.566 83.2423 286.41 82.7738 284.458 82.7738C283.599 82.7738 283.052 83.0861 283.364 83.5547Z" fill="#73081E"/>
<path d="M416.129 83.4767C415.348 84.8824 418.941 86.0539 424.954 86.2882C429.952 86.6006 430.343 86.5225 427.453 85.9758C425.501 85.5853 422.611 84.7262 420.893 84.0234C417.379 82.5395 416.754 82.5395 416.129 83.4767Z" fill="#73081E"/>
<path d="M281.412 84.7263C281.412 85.351 281.724 85.8977 282.193 85.8977C282.583 85.8977 282.74 85.351 282.505 84.7263C282.193 84.1015 281.881 83.5548 281.724 83.5548C281.568 83.5548 281.412 84.1015 281.412 84.7263Z" fill="#73081E"/>
<path d="M282.974 87.9282C282.974 88.553 285.473 90.5054 286.332 90.5835C286.723 90.5835 286.723 90.2711 286.488 89.8025C285.864 88.7873 282.974 87.2253 282.974 87.9282Z" fill="#73081E"/>
<path d="M276.726 88.7872C276.804 91.2863 287.816 108.546 289.3 108.546C290.315 108.546 289.69 107.531 285.629 102.532C283.833 100.346 281.256 96.2065 279.85 93.395C277.429 88.553 276.726 87.4596 276.726 88.7872Z" fill="#73081E"/>
<path d="M289.066 91.5206C289.456 91.9111 290.315 92.1454 290.862 91.9892C291.487 91.7549 291.096 91.4425 290.081 91.1302C288.753 90.8178 288.441 90.8959 289.066 91.5206Z" fill="#73081E"/>
<path d="M440.027 92.614C440.027 93.4731 440.261 93.7074 440.495 93.0826C440.73 92.5359 440.652 91.8331 440.417 91.5988C440.183 91.2864 439.949 91.755 440.027 92.614Z" fill="#73081E"/>
<path d="M436.2 96.7532C435.263 97.6122 433.076 98.4713 431.358 98.7837C426.516 99.5647 426.36 101.049 431.202 100.502C435.732 99.9551 440.183 97.9246 439.793 96.6751C439.246 95.1912 438.075 95.2693 436.2 96.7532Z" fill="#73081E"/>
<path d="M307.653 99.5646C306.95 101.595 307.106 102.064 308.043 100.502C308.512 99.7208 308.746 98.8618 308.512 98.7056C308.355 98.4713 307.965 98.8618 307.653 99.5646Z" fill="#73081E"/>
<path d="M358.572 99.3304C357.322 99.7209 356.385 100.58 356.385 101.205C356.385 101.829 355.214 103.001 353.886 103.86C352.48 104.719 351.621 105.422 351.934 105.422C352.949 105.422 355.917 103.704 356.776 102.689C357.947 101.205 365.679 100.424 367.162 101.673C368.1 102.454 368.1 102.22 367.006 100.502C365.444 98.237 362.633 97.7684 358.572 99.3304Z" fill="#73081E"/>
<path d="M437.215 106.984C435.107 111.67 433.076 115.575 432.842 115.575C432.608 115.575 431.749 113.388 431.046 110.654C429.718 105.969 426.829 100.267 426.126 100.97C425.969 101.205 426.907 103.469 428.234 106.125C429.718 109.171 430.811 112.607 431.124 115.809C431.592 121.119 432.608 123.697 433.779 122.994C434.17 122.681 434.482 121.354 434.482 120.026C434.482 118.62 435.419 115.418 436.513 112.841C440.417 103.782 441.589 100.502 441.355 99.4865C441.198 98.9399 439.402 102.298 437.215 106.984Z" fill="#73081E"/>
<path d="M302.889 99.9551C303.123 100.346 303.982 100.736 304.685 100.736C305.856 100.736 305.856 100.58 304.841 99.9551C303.279 98.9399 302.264 98.9399 302.889 99.9551Z" fill="#73081E"/>
<path d="M351.699 102.298C350.215 103.548 349.2 104.719 349.434 104.953C349.669 105.266 350.372 104.953 350.918 104.25C351.465 103.626 352.324 103.079 352.871 103.079C354.12 103.079 355.838 100.97 355.057 100.502C354.667 100.268 353.183 101.049 351.699 102.298Z" fill="#73081E"/>
<path d="M382.079 109.249C379.736 111.748 377.237 115.028 376.456 116.512L375.05 119.089L376.846 116.746C377.862 115.496 380.517 112.451 382.86 109.952C385.203 107.452 386.921 105.188 386.687 104.953C386.452 104.797 384.344 106.671 382.079 109.249Z" fill="#73081E"/>
<path d="M248.299 107.609C248.065 107.921 248.924 109.795 250.251 111.748C251.735 114.091 253.063 117.839 254.078 122.681C254.937 126.742 256.577 132.834 257.749 136.27C259.935 143.065 267.667 161.73 270.322 166.728C273.134 172.039 272.197 168.602 268.604 160.48C262.591 146.735 257.358 131.741 256.03 124.556C254.156 114.169 253.219 111.045 251.579 108.936C250.017 106.906 249.002 106.515 248.299 107.609Z" fill="#73081E"/>
<path d="M442.37 115.028C442.37 116.199 441.355 119.401 440.261 122.057C437.606 128.382 437.059 130.022 435.263 139.394C434.326 143.924 434.013 147.438 434.404 147.829C435.497 148.922 436.434 146.345 437.528 139.785C438.074 136.583 439.558 130.101 440.808 125.493C442.136 120.807 442.995 116.121 442.838 114.95L442.526 112.841L442.37 115.028Z" fill="#73081E"/>
<path d="M294.064 118.464C294.923 120.573 295.938 123.072 296.25 124.165C296.797 125.805 296.875 125.805 296.953 124.556C297.031 122.994 293.517 114.794 292.814 114.794C292.58 114.794 293.127 116.434 294.064 118.464Z" fill="#73081E"/>
<path d="M394.809 129.632C393.325 132.053 393.715 137.364 395.824 144.47C397.152 148.922 398.011 154.467 398.557 161.964C399.026 168.056 399.573 173.444 399.729 173.913C400.119 175.084 391.216 175.319 388.249 174.225C385.125 173.054 374.347 172.351 374.347 173.288C374.347 174.772 378.252 175.787 385.593 176.1C389.498 176.334 394.809 176.881 397.386 177.349C399.963 177.818 408.788 178.521 416.91 178.833C425.423 179.145 432.92 179.77 434.56 180.395C438.231 181.645 442.292 180.942 444.947 178.443C448.852 174.85 447.212 173.757 442.526 176.959C439.715 178.833 439.168 178.911 434.092 178.364C431.124 178.052 424.486 177.896 419.409 177.974C414.411 178.13 408.163 177.974 405.664 177.662L401.057 177.115L401.447 172.273C402.072 165.166 400.432 154.545 397.308 145.642C394.418 137.129 394.028 133.537 395.746 130.179C397.074 127.758 396.293 127.289 394.809 129.632Z" fill="#73081E"/>
<path d="M298.203 151.499C298.359 160.324 298.75 168.446 299.062 169.618C299.452 171.492 299.296 171.804 297.344 172.351C294.61 173.054 289.3 173.054 281.022 172.351C274.696 171.804 273.915 172.039 279.303 172.976C280.943 173.21 282.037 173.757 281.802 174.147C281.568 174.46 281.646 175.397 281.881 176.1C282.349 177.193 283.052 177.349 286.332 176.881C288.519 176.646 290.862 176.022 291.487 175.631C292.346 175.084 291.643 175.006 289.222 175.397C283.833 176.178 283.443 176.178 283.208 174.928C282.974 173.913 284.145 173.757 290.94 173.991C301.873 174.382 302.186 174.069 301.014 165.869C300.546 162.511 299.921 155.092 299.609 149.547C298.828 132.912 297.812 134.24 298.203 151.499Z" fill="#73081E"/>
<path d="M227.213 150.171C226.041 156.732 224.714 163.214 224.401 164.541C224.011 165.947 224.011 167.119 224.323 167.119C224.948 167.119 226.822 158.918 228.775 147.438C230.805 135.177 229.712 137.207 227.213 150.171Z" fill="#73081E"/>
<path d="M434.482 150.562C434.482 154.623 439.715 169.461 441.979 171.804C443.697 173.522 443.307 171.726 440.808 165.869C439.558 162.901 437.762 157.903 436.825 154.779C435.107 149.078 434.482 147.985 434.482 150.562Z" fill="#73081E"/>
<path d="M366.538 159.621C366.538 159.777 367.084 160.324 367.709 160.871C368.724 161.73 368.803 161.652 368.412 160.558C368.022 159.465 366.538 158.762 366.538 159.621Z" fill="#73081E"/>
<path d="M372.239 164.229C373.488 165.166 375.519 166.884 376.846 168.056C380.283 171.336 382.001 170.789 379.189 167.431C378.487 166.494 376.144 165.01 373.957 164.073L370.052 162.433L372.239 164.229Z" fill="#73081E"/>
<path d="M257.592 167.431C253.766 167.978 248.299 169.071 245.566 169.852C240.802 171.258 240.333 171.258 234.085 170.008C228.15 168.759 227.291 168.759 225.182 169.852C223.855 170.555 222.839 171.57 222.839 172.117C222.839 173.132 230.805 176.49 233.304 176.49C234.866 176.49 235.725 174.616 234.944 172.82C234.32 171.492 234.32 171.492 234.007 172.742C233.617 174.382 229.478 174.616 226.354 173.21C223.933 172.117 223.933 171.648 226.354 170.477C227.916 169.774 229.243 169.852 232.445 170.711C237.443 172.039 244.628 172.117 247.596 170.867C248.767 170.399 253.844 169.774 258.764 169.54C266.027 169.149 267.745 168.837 267.745 167.9C267.745 166.338 266.105 166.338 257.592 167.431Z" fill="#73081E"/>
</svg>
