<svg width="762" height="770" viewBox="0 0 762 770" fill="none" xmlns="http://www.w3.org/2000/svg">
<path d="M212.214 611.428L301.189 467.532L161.256 560.251L283.487 443.647L126.669 496.002L273.091 415.339L111.018 423.447L270.773 384.706L115.466 347.966L276.704 354.021L139.68 275.157L290.444 325.559L181.867 210.421L310.975 301.432L238.896 158.558L336.773 283.428L306.539 123.416L365.925 272.883L379.779 107.599L396.27 270.579L453.183 112.283L425.556 276.688L521.308 137.118L451.612 290.754L579.101 180.263L472.505 311.737L622.276 238.518L486.686 338.079L647.631 307.563L493.102 367.827L653.285 382.278L491.279 398.774L638.819 457.119L481.351 428.625L605.306 526.538L464.055 455.167L555.232 585.386L440.672 476.431L492.309 629.298L412.939 490.839L421.206 655.017L382.911 497.324L347.195 660.636L352.815 495.404L275.765 645.738L324.884 485.222L212.214 611.428Z" fill="#E4FF1A" fill-opacity="0.4"/>
</svg>
