<svg width="448" height="444" viewBox="0 0 448 444" fill="none" xmlns="http://www.w3.org/2000/svg">
<g filter="url(#filter0_bd)">
<path d="M339.395 120.75C396.973 187.438 391.907 286.174 328.079 341.282C264.251 396.39 165.833 387.003 108.255 320.314C50.6763 253.626 55.7425 154.89 119.57 99.7822C183.398 44.674 281.816 54.0615 339.395 120.75ZM146.915 286.936C185.232 331.316 250.728 337.563 293.204 300.889C335.68 264.216 339.052 198.509 300.735 154.129C262.417 109.749 196.921 103.501 154.445 140.175C111.969 176.849 108.597 242.556 146.915 286.936Z" fill="#46005F" fill-opacity="0.15"/>
<path d="M339.395 120.75C396.973 187.438 391.907 286.174 328.079 341.282C264.251 396.39 165.833 387.003 108.255 320.314C50.6763 253.626 55.7425 154.89 119.57 99.7822C183.398 44.674 281.816 54.0615 339.395 120.75ZM146.915 286.936C185.232 331.316 250.728 337.563 293.204 300.889C335.68 264.216 339.052 198.509 300.735 154.129C262.417 109.749 196.921 103.501 154.445 140.175C111.969 176.849 108.597 242.556 146.915 286.936Z" fill="url(#paint0_linear)"/>
</g>
<defs>
<filter id="filter0_bd" x="0" y="-4.00006" width="447.649" height="453.064" filterUnits="userSpaceOnUse" color-interpolation-filters="sRGB">
<feFlood flood-opacity="0" result="BackgroundImageFix"/>
<feGaussianBlur in="BackgroundImage" stdDeviation="2"/>
<feComposite in2="SourceAlpha" operator="in" result="effect1_backgroundBlur"/>
<feColorMatrix in="SourceAlpha" type="matrix" values="0 0 0 0 0 0 0 0 0 0 0 0 0 0 0 0 0 0 127 0"/>
<feOffset dy="4"/>
<feGaussianBlur stdDeviation="2"/>
<feColorMatrix type="matrix" values="0 0 0 0 0 0 0 0 0 0 0 0 0 0 0 0 0 0 0.25 0"/>
<feBlend mode="normal" in2="effect1_backgroundBlur" result="effect2_dropShadow"/>
<feBlend mode="normal" in="SourceGraphic" in2="effect2_dropShadow" result="shape"/>
</filter>
<linearGradient id="paint0_linear" x1="119.57" y1="99.7822" x2="328.079" y2="341.282" gradientUnits="userSpaceOnUse">
<stop stop-color="#9F05AC" stop-opacity="0.87"/>
<stop offset="0.578125" stop-color="white" stop-opacity="0"/>
</linearGradient>
</defs>
</svg>
