<svg width="30" height="30" viewBox="0 0 30 30" fill="none" xmlns="http://www.w3.org/2000/svg">
<path d="M27.2385 6.91597L24.1935 9.96097L23.5679 9.33533L22.8837 10.0195L24.1935 11.3294L27.9227 7.60016L27.2385 6.91597Z" fill="#572360"/>
<path d="M25.1613 3.87097C24.4732 3.87097 23.819 4.01758 23.2258 4.2779V3.3871C23.2258 2.05306 22.1405 0.967742 20.8065 0.967742H17.4194C17.4194 0.434032 16.9853 0 16.4516 0H14.5161C13.9824 0 13.5484 0.434032 13.5484 0.967742H9.67742C9.67742 0.434032 9.24339 0 8.70968 0H6.77419C6.24048 0 5.80645 0.434032 5.80645 0.967742H2.41935C1.08532 0.967742 0 2.05306 0 3.3871V27.5806C0 28.9147 1.08532 30 2.41935 30H20.8065C22.1405 30 23.2258 28.9147 23.2258 27.5806V15.2003L24.8913 13.5348C24.9813 13.5397 25.0703 13.5484 25.1613 13.5484C27.8294 13.5484 30 11.3777 30 8.70968C30 6.04161 27.8294 3.87097 25.1613 3.87097ZM20.8065 1.93548C21.6068 1.93548 22.2581 2.58677 22.2581 3.3871V4.8479C21.8913 5.12419 21.5656 5.45081 21.2903 5.81855V3.87097C21.2903 3.33726 20.8563 2.90323 20.3226 2.90323H17.4194V1.93548H20.8065ZM9.88887 21.2182L12.6527 23.9821L9.16984 25.1429C8.94532 25.2189 8.70919 25.0413 8.70968 24.8124C8.70968 24.7756 8.71597 24.7369 8.7271 24.7021L9.88887 21.2182ZM10.3616 20.3226L20.5398 10.1444C20.7266 10.7444 21.0276 11.2945 21.4171 11.7697L11.6129 21.5739L10.3616 20.3226ZM14.5161 0.967742H16.4516L16.4521 3.87097H14.5161V0.967742ZM13.5484 1.93548V2.90323H9.67742V1.93548H13.5484ZM6.77419 0.967742H8.70968L8.71016 3.87097H6.77419V0.967742ZM8.70968 4.83871C9.24339 4.83871 9.67742 4.40468 9.67742 3.87097H13.5484C13.5484 4.40468 13.9824 4.83871 14.5161 4.83871H16.4516C16.9853 4.83871 17.4194 4.40468 17.4194 3.87097H20.3226V8.24758H20.3458C20.3313 8.4 20.3226 8.55387 20.3226 8.70968C20.3226 8.80064 20.3313 8.88968 20.3361 8.97968L9.25452 20.0613L7.80871 24.3977C7.76468 24.5323 7.74194 24.6716 7.74194 24.8124C7.74194 25.5382 8.33274 26.129 9.05855 26.129C9.19936 26.129 9.33871 26.1063 9.47468 26.0613L13.8097 24.6165L20.3226 18.1035V23.2258H16.4516V27.0968H2.90323V3.87097H5.80645C5.80645 4.40468 6.24048 4.83871 6.77419 4.83871H8.70968ZM19.6384 24.1935L17.4194 26.4126V24.1935H19.6384ZM22.2581 27.5806C22.2581 28.381 21.6068 29.0323 20.8065 29.0323H2.41935C1.61903 29.0323 0.967742 28.381 0.967742 27.5806V3.3871C0.967742 2.58677 1.61903 1.93548 2.41935 1.93548H5.80645V2.90323H2.90323C2.36952 2.90323 1.93548 3.33726 1.93548 3.87097V27.0968C1.93548 27.6305 2.36952 28.0645 2.90323 28.0645H17.1358L21.2903 23.91V17.1358L22.2581 16.1681V27.5806ZM13.5484 23.5094L12.2971 22.2581L22.1008 12.4539C22.576 12.8429 23.1261 13.1444 23.7261 13.3311L13.5484 23.5094ZM25.1613 12.5806C23.0269 12.5806 21.2903 10.844 21.2903 8.70968C21.2903 6.57532 23.0269 4.83871 25.1613 4.83871C27.2956 4.83871 29.0323 6.57532 29.0323 8.70968C29.0323 10.844 27.2956 12.5806 25.1613 12.5806Z" fill="#572360"/>
<path d="M3.87097 8.70967H6.7742V5.80644H3.87097V8.70967ZM4.83871 6.77418H5.80645V7.74192H4.83871V6.77418Z" fill="#572360"/>
<path d="M3.87097 12.5806H6.7742V9.67741H3.87097V12.5806ZM4.83871 10.6452H5.80645V11.6129H4.83871V10.6452Z" fill="#572360"/>
<path d="M3.87097 16.4516H6.7742V13.5484H3.87097V16.4516ZM4.83871 14.5161H5.80645V15.4839H4.83871V14.5161Z" fill="#572360"/>
<path d="M3.87097 20.3226H6.7742V17.4194H3.87097V20.3226ZM4.83871 18.3871H5.80645V19.3548H4.83871V18.3871Z" fill="#572360"/>
<path d="M3.87097 24.1936H6.7742V21.2903H3.87097V24.1936ZM4.83871 22.2581H5.80645V23.2258H4.83871V22.2581Z" fill="#572360"/>
<path d="M7.74194 5.80644H19.3548V6.77418H7.74194V5.80644Z" fill="#572360"/>
<path d="M7.74194 7.74193H19.3548V8.70967H7.74194V7.74193Z" fill="#572360"/>
<path d="M7.74194 9.67741H13.5484V10.6452H7.74194V9.67741Z" fill="#572360"/>
<path d="M7.74194 11.6129H13.5484V12.5806H7.74194V11.6129Z" fill="#572360"/>
<path d="M7.74194 13.5484H12.5807V14.5161H7.74194V13.5484Z" fill="#572360"/>
<path d="M7.74194 15.4839H12.5807V16.4516H7.74194V15.4839Z" fill="#572360"/>
</svg>
