<svg width="51" height="89" viewBox="0 0 51 89" fill="none" xmlns="http://www.w3.org/2000/svg">
<mask id="path-1-outside-1" maskUnits="userSpaceOnUse" x="0" y="0" width="51" height="89" fill="black">
<rect fill="white" width="51" height="89"/>
<path d="M44.5 83C34.2892 83 24.4965 78.9438 17.2764 71.7236C10.0562 64.5035 6 54.7108 6 44.5C6 34.2892 10.0562 24.4965 17.2764 17.2764C24.4965 10.0562 34.2892 6 44.5 6V44.5V83Z"/>
</mask>
<path d="M44.5 83C34.2892 83 24.4965 78.9438 17.2764 71.7236C10.0562 64.5035 6 54.7108 6 44.5C6 34.2892 10.0562 24.4965 17.2764 17.2764C24.4965 10.0562 34.2892 6 44.5 6V44.5V83Z" stroke="#FF0AE6" stroke-width="12" mask="url(#path-1-outside-1)"/>
<path d="M44.5 83C34.2892 83 24.4965 78.9438 17.2764 71.7236C10.0562 64.5035 6 54.7108 6 44.5C6 34.2892 10.0562 24.4965 17.2764 17.2764C24.4965 10.0562 34.2892 6 44.5 6V44.5V83Z" stroke="url(#paint0_linear)" stroke-width="12" mask="url(#path-1-outside-1)"/>
<defs>
<linearGradient id="paint0_linear" x1="44.5" y1="6" x2="44.5" y2="83" gradientUnits="userSpaceOnUse">
<stop stop-color="#00A3FF"/>
<stop offset="1" stop-color="white" stop-opacity="0"/>
</linearGradient>
</defs>
</svg>
