<svg width="255" height="101" viewBox="0 0 255 101" fill="none" xmlns="http://www.w3.org/2000/svg">
<path d="M73.312 49V18.2H91.836V21.808H77.14V31.268H86.864V34.876H77.14V49H73.312ZM111.579 49L108.939 41.476H96.7073L94.1113 49H90.1073L101.019 18.2H104.583L115.495 49H111.579ZM107.751 38.088L103.791 26.692C103.293 25.2547 102.97 24.2133 102.823 23.568C102.501 24.712 102.178 25.7533 101.855 26.692L97.8513 38.088H107.751ZM139.395 49L130.243 32.06L125.007 38.484V49H121.179V18.2H125.007V33.292L137.019 18.2H141.331L132.839 28.848L143.839 49H139.395ZM150.226 49V18.2H168.53V21.808H154.054V31.268H163.602V34.876H154.054V45.348H169.498V49H150.226ZM187.009 49V18.2H190.837V49H187.009ZM222.082 49H218.386L204.526 27C203.998 26.1493 203.588 25.4307 203.294 24.844C203.353 25.724 203.382 26.4427 203.382 27V49H199.554V18.2H203.426L217.066 40.112C217.536 40.8747 217.961 41.6373 218.342 42.4C218.284 41.344 218.254 40.596 218.254 40.156V18.2H222.082V49ZM242.147 49.528C239.917 49.528 237.952 49.0733 236.251 48.164C234.549 47.2547 233.215 46.0227 232.247 44.468C231.279 42.9133 230.56 41.2267 230.091 39.408C229.621 37.5893 229.387 35.6533 229.387 33.6C229.387 31.576 229.621 29.6547 230.091 27.836C230.589 25.988 231.323 24.3013 232.291 22.776C233.288 21.2213 234.623 19.9893 236.295 19.08C237.996 18.1413 239.947 17.672 242.147 17.672C246.957 17.672 250.272 19.52 252.091 23.216L248.659 24.976C247.837 23.744 246.928 22.82 245.931 22.204C244.963 21.5587 243.701 21.236 242.147 21.236C240.064 21.236 238.333 21.896 236.955 23.216C235.576 24.536 234.623 26.0907 234.095 27.88C233.596 29.64 233.347 31.5467 233.347 33.6C233.347 36.9733 234.095 39.8773 235.591 42.312C237.087 44.7173 239.272 45.92 242.147 45.92C245.021 45.92 247.251 44.6147 248.835 42.004L252.355 43.324C251.504 45.2013 250.228 46.712 248.527 47.856C246.825 48.9707 244.699 49.528 242.147 49.528Z" fill="white"/>
<path d="M89.3 88H86.78L77.33 73C76.97 72.42 76.69 71.93 76.49 71.53C76.53 72.13 76.55 72.62 76.55 73V88H73.94V67H76.58L85.88 81.94C86.2 82.46 86.49 82.98 86.75 83.5C86.71 82.78 86.69 82.27 86.69 81.97V67H89.3V88ZM100.64 88.36C98.5602 88.36 96.9002 87.62 95.6602 86.14C94.4402 84.64 93.8302 82.7 93.8302 80.32C93.8302 77.82 94.4502 75.86 95.6902 74.44C96.9302 73.02 98.5802 72.31 100.64 72.31C102.48 72.31 103.99 72.93 105.17 74.17C106.37 75.39 106.97 77.2 106.97 79.6C106.97 80.16 106.94 80.74 106.88 81.34H96.5002C96.6002 82.74 97.0302 83.87 97.7902 84.73C98.5702 85.57 99.5402 85.99 100.7 85.99C101.98 85.99 103.08 85.53 104 84.61L105.59 86.38C104.27 87.7 102.62 88.36 100.64 88.36ZM96.4702 79.12H104.33C104.31 77.54 103.93 76.4 103.19 75.7C102.47 74.98 101.62 74.62 100.64 74.62C99.4602 74.62 98.4902 75 97.7302 75.76C96.9702 76.5 96.5502 77.62 96.4702 79.12ZM121.703 86.23C120.483 87.65 118.833 88.36 116.753 88.36C114.673 88.36 113.023 87.65 111.803 86.23C110.583 84.81 109.973 82.85 109.973 80.35C109.973 77.85 110.583 75.89 111.803 74.47C113.023 73.03 114.673 72.31 116.753 72.31C118.833 72.31 120.483 73.02 121.703 74.44C122.923 75.86 123.533 77.82 123.533 80.32C123.533 82.82 122.923 84.79 121.703 86.23ZM113.693 84.46C114.433 85.44 115.453 85.93 116.753 85.93C118.053 85.93 119.063 85.44 119.783 84.46C120.523 83.46 120.893 82.08 120.893 80.32C120.893 78.58 120.523 77.21 119.783 76.21C119.063 75.21 118.053 74.71 116.753 74.71C115.453 74.71 114.433 75.21 113.693 76.21C112.973 77.19 112.613 78.57 112.613 80.35C112.613 82.09 112.973 83.46 113.693 84.46ZM137.051 88V78.73C137.051 77.35 136.751 76.34 136.151 75.7C135.571 75.04 134.771 74.71 133.751 74.71C131.391 74.71 130.211 76.03 130.211 78.67V88H127.601V72.67H130.211V74.23C131.151 72.95 132.471 72.31 134.171 72.31C135.971 72.31 137.331 72.86 138.251 73.96C139.191 75.04 139.661 76.78 139.661 79.18V88H137.051ZM152.016 88V67H154.626V85.48H164.946V88H152.016ZM170.814 69.43C170.494 69.73 170.104 69.88 169.644 69.88C169.184 69.88 168.794 69.72 168.474 69.4C168.174 69.08 168.024 68.7 168.024 68.26C168.024 67.8 168.184 67.41 168.504 67.09C168.824 66.75 169.204 66.58 169.644 66.58C170.104 66.58 170.494 66.75 170.814 67.09C171.134 67.41 171.294 67.8 171.294 68.26C171.294 68.72 171.134 69.11 170.814 69.43ZM168.354 88V72.67H170.964V88H168.354ZM180.651 94.21L179.391 92.17C181.611 92.05 183.141 91.66 183.981 91C184.841 90.36 185.271 89.48 185.271 88.36V86.5C184.371 87.74 183.051 88.36 181.311 88.36C179.511 88.36 178.011 87.66 176.811 86.26C175.631 84.86 175.041 82.88 175.041 80.32C175.041 77.84 175.621 75.89 176.781 74.47C177.961 73.03 179.501 72.31 181.401 72.31C183.001 72.31 184.291 72.85 185.271 73.93V72.67H187.881V87.37C187.881 89.71 187.251 91.4 185.991 92.44C184.751 93.48 182.971 94.07 180.651 94.21ZM181.851 85.93C182.491 85.93 183.121 85.74 183.741 85.36C184.381 84.96 184.891 84.43 185.271 83.77V76.75C184.911 76.15 184.401 75.66 183.741 75.28C183.081 74.9 182.451 74.71 181.851 74.71C180.491 74.71 179.451 75.2 178.731 76.18C178.031 77.14 177.681 78.52 177.681 80.32C177.681 82.06 178.061 83.43 178.821 84.43C179.601 85.43 180.611 85.93 181.851 85.93ZM192.845 88V67.54L195.455 66.34V74.26C196.395 72.96 197.715 72.31 199.415 72.31C201.215 72.31 202.575 72.86 203.495 73.96C204.435 75.04 204.905 76.78 204.905 79.18V88H202.295V78.73C202.295 77.35 201.995 76.34 201.395 75.7C200.815 75.04 200.015 74.71 198.995 74.71C196.635 74.71 195.455 76.03 195.455 78.67V88H192.845ZM213.89 88.36C211.73 88.36 210.65 87.14 210.65 84.7V74.95H208.16V72.67H210.65V67.6L213.26 66.34V72.67H217.04V74.95H213.26V83.83C213.26 84.51 213.37 85.03 213.59 85.39C213.81 85.75 214.23 85.93 214.85 85.93C215.53 85.93 216.29 85.66 217.13 85.12L216.83 87.67C215.95 88.13 214.97 88.36 213.89 88.36ZM225.5 88.36C224.4 88.36 223.35 88.13 222.35 87.67C221.37 87.19 220.57 86.56 219.95 85.78L221.81 84.19C222.95 85.41 224.2 86.02 225.56 86.02C226.42 86.02 227.11 85.86 227.63 85.54C228.15 85.2 228.41 84.71 228.41 84.07C228.41 83.59 228.22 83.16 227.84 82.78C227.46 82.38 227.07 82.09 226.67 81.91C226.27 81.71 225.68 81.46 224.9 81.16C223.34 80.58 222.16 79.93 221.36 79.21C220.56 78.49 220.16 77.54 220.16 76.36C220.16 75.12 220.64 74.14 221.6 73.42C222.58 72.68 223.82 72.31 225.32 72.31C227.46 72.31 229.18 73.08 230.48 74.62L228.68 76.12C227.74 75.14 226.61 74.65 225.29 74.65C224.51 74.65 223.89 74.8 223.43 75.1C222.97 75.4 222.74 75.82 222.74 76.36C222.74 76.66 222.81 76.94 222.95 77.2C223.11 77.44 223.38 77.67 223.76 77.89C224.16 78.11 224.47 78.28 224.69 78.4C224.93 78.5 225.36 78.67 225.98 78.91C227.6 79.49 228.83 80.15 229.67 80.89C230.53 81.63 230.96 82.67 230.96 84.01C230.96 85.37 230.47 86.44 229.49 87.22C228.51 87.98 227.18 88.36 225.5 88.36Z" fill="white"/>
<mask id="path-3-outside-1" maskUnits="userSpaceOnUse" x="0" y="8" width="51" height="89" fill="black">
<rect fill="white" y="8" width="51" height="89"/>
<path d="M44.5 91C34.2892 91 24.4965 86.9438 17.2764 79.7236C10.0562 72.5035 6 62.7108 6 52.5C6 42.2892 10.0562 32.4965 17.2764 25.2764C24.4965 18.0562 34.2892 14 44.5 14V52.5V91Z"/>
</mask>
<path d="M44.5 91C34.2892 91 24.4965 86.9438 17.2764 79.7236C10.0562 72.5035 6 62.7108 6 52.5C6 42.2892 10.0562 32.4965 17.2764 25.2764C24.4965 18.0562 34.2892 14 44.5 14V52.5V91Z" stroke="#FF0AE6" stroke-width="12" mask="url(#path-3-outside-1)"/>
<path d="M44.5 91C34.2892 91 24.4965 86.9438 17.2764 79.7236C10.0562 72.5035 6 62.7108 6 52.5C6 42.2892 10.0562 32.4965 17.2764 25.2764C24.4965 18.0562 34.2892 14 44.5 14V52.5V91Z" stroke="url(#paint0_linear)" stroke-width="12" mask="url(#path-3-outside-1)"/>
<defs>
<linearGradient id="paint0_linear" x1="44.5" y1="14" x2="44.5" y2="91" gradientUnits="userSpaceOnUse">
<stop stop-color="#00A3FF"/>
<stop offset="1" stop-color="white" stop-opacity="0"/>
</linearGradient>
</defs>
</svg>
